<svg width="336" height="304" viewBox="0 0 336 304" fill="none" xmlns="http://www.w3.org/2000/svg">
<g clip-path="url(#clip0_58723_270)">
<path d="M0.675649 249.836C3.6088 248.4 4.854 244.589 8.03619 243.595C11.3014 242.574 14.9263 244.589 17.9148 242.38C19.2153 241.414 20.1838 239.812 21.7611 239.232C23.1447 238.735 24.5836 239.287 25.9118 239.702C27.0463 240.061 28.1808 240.392 29.3153 240.751C33.8811 242.159 38.4192 243.54 42.9849 244.948C48.1594 246.522 53.3063 248.124 58.4808 249.698C58.9789 249.864 59.2002 249.063 58.7021 248.897C49.2386 245.998 39.8027 243.098 30.3392 240.199C28.1255 239.536 25.8288 238.514 23.5321 238.238C21.9271 238.045 20.6543 238.68 19.5197 239.729C17.9425 241.193 16.7526 242.546 14.4559 242.656C12.5466 242.767 10.6649 242.27 8.75563 242.574C4.82632 243.181 3.60879 247.461 0.288249 249.091C-0.209832 249.367 0.205238 250.085 0.675649 249.836Z" fill="white"/>
<path d="M50.4007 246.357C52.3654 246.854 53.915 244.893 55.6859 244.313C58.0656 243.512 60.6114 243.844 62.7697 245.086C63.2402 245.362 63.6552 244.644 63.1848 244.368C61.3585 243.291 59.2832 242.85 57.1802 243.126C56.267 243.236 55.4092 243.485 54.5791 243.844C53.3892 244.368 52.0057 245.887 50.6221 245.556C50.0963 245.418 49.875 246.219 50.4007 246.357Z" fill="white"/>
<path d="M71.7354 244.286C69.8814 242.767 68.1105 241.138 66.4502 239.398C65.6754 238.597 64.9283 237.741 64.2088 236.885C63.7938 236.388 63.3787 235.891 62.9913 235.394C62.7146 235.035 62.4379 234.676 62.1888 234.317C61.7461 233.875 61.7461 233.323 62.2165 232.715C62.5486 232.853 63.0743 232.522 62.7976 232.135C61.1097 229.871 59.8644 227.386 59.062 224.679C58.896 224.845 58.7299 225.011 58.5639 225.176C59.477 225.425 60.1412 225.894 60.6392 226.668C60.916 227.109 61.6354 226.723 61.3587 226.253C57.2357 219.129 53.8598 211.618 51.314 203.803C51.0927 203.941 50.8436 204.079 50.6223 204.217C62.2165 215.594 67.474 231.417 77.242 244.148C77.574 244.562 78.2935 244.148 77.9614 243.733C68.1658 230.948 62.8529 215.07 51.2034 203.637C50.9267 203.361 50.3732 203.637 50.5116 204.051C53.085 211.949 56.4609 219.516 60.6392 226.695C60.8883 226.557 61.1097 226.419 61.3587 226.281C60.7223 225.315 59.8921 224.679 58.7853 224.403C58.4809 224.32 58.1765 224.597 58.2872 224.9C59.1173 227.662 60.3902 230.23 62.1058 232.55C62.2995 232.356 62.4932 232.163 62.6869 231.97C61.9121 231.611 61.0543 231.97 60.8606 232.881C60.6116 234.179 62.1888 235.615 62.9083 236.526C65.371 239.591 68.1658 242.38 71.2096 244.865C71.5694 245.197 72.1505 244.617 71.7354 244.286Z" fill="white"/>
<path d="M68.83 227.027C63.7385 219.433 59.6155 211.286 56.5716 202.671C56.4886 202.836 56.3779 203.002 56.2949 203.168C57.2358 202.947 58.0382 203.306 58.564 204.134C58.8407 204.604 59.5048 204.19 59.2834 203.72C54.9944 194.469 50.6223 184.832 50.9267 174.421C50.6777 174.504 50.401 174.559 50.1519 174.642C57.5401 189.83 64.5686 205.211 71.2097 220.731C71.4034 221.172 72.1229 220.841 71.9568 220.399C70.85 217.085 69.7708 213.744 68.664 210.43C68.1382 208.801 67.5848 207.2 67.059 205.57C66.6993 204.493 65.9245 202.146 67.4741 201.566C67.3081 201.511 67.1697 201.428 67.0037 201.373C68.996 205.266 70.9607 209.16 72.953 213.054C73.202 213.523 73.9215 213.109 73.6725 212.64C71.5141 208.415 70.5179 203.748 70.7116 198.998C70.4349 199.026 70.1582 199.081 69.9092 199.108C75.6648 213.385 82.3335 227.303 89.8324 240.751C90.0815 241.22 90.8009 240.806 90.5519 240.337C83.0807 226.944 76.4396 213.109 70.7116 198.888C70.5456 198.473 69.9092 198.501 69.9092 198.998C69.7155 203.886 70.767 208.663 72.9807 213.054C73.2297 212.916 73.4511 212.778 73.7001 212.64C71.7078 208.746 69.7431 204.852 67.7508 200.959C67.6678 200.821 67.4464 200.71 67.2804 200.765C64.5133 201.787 66.2842 205.736 66.893 207.586C68.3319 211.922 69.7431 216.285 71.182 220.62C71.4311 220.51 71.6801 220.399 71.9292 220.289C65.2881 204.769 58.2596 189.388 50.8714 174.2C50.6777 173.814 50.0966 174.035 50.0966 174.421C49.7645 184.97 54.2196 194.773 58.564 204.134C58.813 203.996 59.0344 203.858 59.2834 203.72C58.564 202.588 57.4018 202.091 56.0736 202.367C55.8522 202.422 55.7138 202.671 55.7968 202.864C58.8684 211.535 63.019 219.764 68.1382 227.413C68.4149 227.883 69.1344 227.468 68.83 227.027Z" fill="white"/>
<path d="M14.1513 280.405C23.7256 275.794 33.8256 271.099 44.7557 272.204C49.9302 272.728 54.9387 274.22 60.0855 274.882C62.6866 275.214 65.3154 275.352 67.9165 275.048C70.3515 274.744 72.6482 273.861 75.028 273.336C78.0995 272.646 80.8943 273.364 83.8551 274.192C86.2902 274.855 88.6975 275.407 91.2156 274.827C91.7414 274.717 91.52 273.916 90.9943 274.026C85.9581 275.214 81.2263 271.596 76.1348 272.314C73.6167 272.673 71.2647 273.667 68.7743 274.109C66.1455 274.551 63.4614 274.496 60.805 274.164C55.5751 273.557 50.4836 272.01 45.2261 271.431C40.0516 270.851 34.9324 271.513 29.9793 272.949C24.3343 274.606 18.9938 277.147 13.7363 279.687C13.2382 279.908 13.6809 280.626 14.1513 280.405Z" fill="white"/>
<path d="M70.3242 303.297C73.5617 301.917 76.7439 300.398 79.8154 298.686C81.4203 297.775 82.9976 296.836 84.5749 295.842C85.9861 294.93 87.3973 293.632 88.9469 292.97C90.6902 292.252 93.319 293.605 95.0623 294.13C96.9162 294.709 98.7702 295.262 100.596 295.842C104.387 297.001 108.178 298.161 111.942 299.321C112.44 299.487 112.661 298.686 112.163 298.52C108.123 297.278 104.055 296.035 100.015 294.792C98.0784 294.185 96.1414 293.605 94.2044 292.997C92.7102 292.528 90.8286 291.561 89.2513 291.948C87.7847 292.307 86.4565 293.577 85.2113 294.406C83.6064 295.455 81.9461 296.477 80.2858 297.443C76.9376 299.349 73.4787 301.061 69.9091 302.552C69.411 302.773 69.8538 303.491 70.3242 303.297Z" fill="white"/>
<path d="M104.747 304.154C106.85 303.104 108.953 302.027 111.056 300.978C112.993 299.984 115.068 298.658 117.282 298.465C119.523 298.244 121.267 299.708 123.204 300.564C124.836 301.282 126.607 301.696 128.378 301.806C132.529 302.027 136.403 299.956 140.526 300.177C143.819 300.37 147.139 303.077 150.377 301.365C150.847 301.116 150.432 300.398 149.962 300.647C147.942 301.724 145.756 300.674 143.763 300.039C142.048 299.487 140.387 299.238 138.589 299.432C134.327 299.873 130.426 301.668 126.054 300.647C122.429 299.818 119.662 296.808 115.76 297.94C113.961 298.465 112.274 299.459 110.613 300.288C108.51 301.337 106.407 302.414 104.304 303.463C103.862 303.684 104.277 304.402 104.747 304.154Z" fill="white"/>
<path d="M120.907 298.161C119.191 296.67 117.642 295.013 116.369 293.108C115.788 292.252 115.262 291.34 114.764 290.429C114.515 289.96 114.293 289.49 114.1 289.021C113.934 288.634 113.768 288.275 113.629 287.889C113.38 287.474 113.491 287.088 113.961 286.729C114.21 286.618 114.46 286.508 114.709 286.397C111.665 281.924 109.755 276.843 109.119 271.486C108.87 271.596 108.649 271.679 108.4 271.79C108.898 272.425 109.396 273.06 109.921 273.723C110.226 274.109 110.807 273.612 110.586 273.225C105.771 264.637 103.197 254.972 103.142 245.142C102.893 245.252 102.672 245.335 102.423 245.445C104.304 246.964 105.743 248.842 106.629 251.079C106.878 250.968 107.127 250.858 107.376 250.747C105.217 246.191 104.775 241.055 106.047 236.195C105.771 236.195 105.522 236.195 105.245 236.195C110.918 252.404 116.563 268.586 122.235 284.796C122.401 285.293 123.204 285.072 123.038 284.575C120.187 276.263 118.776 267.537 118.859 258.728C118.61 258.838 118.389 258.921 118.14 259.032C119.828 260.55 120.879 262.456 121.267 264.693C121.35 265.162 122.097 265.052 122.069 264.582C121.986 262.898 121.875 261.186 121.792 259.501C121.571 259.612 121.377 259.75 121.156 259.86C122.623 260.799 122.899 263.284 123.37 264.831C123.868 266.488 124.366 268.144 124.892 269.829C125.915 273.253 126.967 276.65 127.991 280.074C130.066 286.895 132.141 293.743 134.217 300.564C134.383 301.061 135.185 300.867 135.019 300.343C132.778 292.997 130.564 285.624 128.323 278.279C127.244 274.689 126.137 271.099 125.058 267.509C124.504 265.659 123.951 263.837 123.397 261.986C123.038 260.854 122.623 259.832 121.599 259.17C121.35 259.004 120.962 259.225 120.962 259.529C121.045 261.213 121.156 262.925 121.239 264.61C121.516 264.582 121.792 264.527 122.041 264.499C121.654 262.124 120.492 260.053 118.693 258.452C118.416 258.203 118.001 258.369 117.974 258.755C117.891 267.62 119.302 276.429 122.18 284.823C122.457 284.741 122.706 284.685 122.982 284.603C117.31 268.393 111.665 252.211 105.992 236.001C105.854 235.642 105.3 235.587 105.19 236.001C103.861 241.11 104.36 246.439 106.601 251.189C106.795 251.603 107.542 251.3 107.348 250.858C106.407 248.483 104.941 246.467 102.921 244.865C102.644 244.645 102.201 244.783 102.201 245.169C102.257 255.138 104.858 264.969 109.755 273.667C109.977 273.502 110.198 273.336 110.42 273.17C109.921 272.535 109.423 271.9 108.898 271.237C108.676 270.961 108.15 271.182 108.178 271.541C108.815 277.064 110.752 282.283 113.878 286.867C114.155 287.254 114.709 287.005 114.626 286.536C114.487 285.762 113.574 285.486 112.938 285.956C111.775 286.784 112.91 288.745 113.325 289.684C114.902 293.191 117.254 296.256 120.16 298.769C120.741 299.072 121.322 298.493 120.907 298.161Z" fill="white"/>
<path d="M91.9627 236.222C91.603 231.031 101.039 234.013 103.668 234.51C107.984 235.311 112.273 236.112 116.59 236.913C125.196 238.514 133.829 240.116 142.435 241.718C142.961 241.828 143.182 241.027 142.656 240.917C132.778 239.067 122.927 237.244 113.048 235.394C108.206 234.483 103.363 233.571 98.5208 232.688C96.7775 232.356 94.7575 231.997 93.1249 232.909C91.8797 233.571 91.0496 234.786 91.1603 236.222C91.1603 236.747 92.0181 236.747 91.9627 236.222Z" fill="white"/>
<path d="M136.707 240.806C139.585 241.11 141.356 238.376 143.597 237.051C145.507 235.946 147.167 236.802 149.132 237.189C151.318 237.631 153.559 237.686 155.773 237.41C156.298 237.354 156.298 236.526 155.773 236.581C153.282 236.885 150.792 236.775 148.357 236.167C146.89 235.78 145.562 235.311 144.096 235.891C141.494 236.885 139.723 240.309 136.707 239.978C136.182 239.923 136.182 240.751 136.707 240.806Z" fill="white"/>
<path d="M189.476 293.909C196.117 291.589 202.814 289.269 209.676 287.612C216.843 285.9 224.065 285.21 231.426 285.431C238.703 285.652 245.925 286.48 253.175 287.143C260.453 287.833 267.73 288.496 275.008 289.187C283.365 289.96 291.749 290.733 300.106 291.534C300.631 291.589 300.631 290.761 300.106 290.705C285.191 289.325 270.276 287.944 255.334 286.536C240.972 285.21 226.528 283.249 212.222 286.204C204.363 287.833 196.781 290.484 189.227 293.108C188.757 293.273 188.978 294.074 189.476 293.909Z" fill="white"/>
<path d="M218.725 266.736C223.678 265.687 228.326 263.616 233.003 261.738C238.011 259.75 243.075 258.369 248.443 257.9C253.867 257.43 259.318 257.706 264.714 258.038C270.138 258.369 275.561 258.756 281.012 259.142C287.349 259.612 293.714 260.136 300.05 260.689C300.576 260.744 300.576 259.915 300.05 259.86C288.816 258.866 277.581 258.01 266.319 257.292C255.61 256.602 245.068 256.326 234.857 260.109C229.433 262.125 224.176 264.693 218.476 265.908C218.005 266.046 218.199 266.847 218.725 266.736Z" fill="white"/>
<path d="M282.507 234.897C286.464 231.887 290.642 228.932 295.069 226.668C297.228 225.563 299.552 224.679 301.987 224.486C304.616 224.265 307.245 224.79 309.818 225.121C315.048 225.756 320.306 226.143 325.563 226.474C329.05 226.695 333.477 227.192 335.94 224.155C336.272 223.74 335.691 223.161 335.359 223.575C332.564 227.027 326.67 225.729 322.851 225.48C317.594 225.121 312.392 224.624 307.162 223.961C304.92 223.685 302.707 223.464 300.465 223.879C298.252 224.265 296.176 225.149 294.212 226.198C289.95 228.462 285.91 231.279 282.064 234.206C281.677 234.51 282.092 235.228 282.507 234.897Z" fill="white"/>
<path d="M130.177 230.34C134.106 227.386 138.063 224.458 141.992 221.504C145.756 218.687 149.27 215.732 154.195 215.484C158.844 215.263 163.604 215.788 168.225 216.174C173.206 216.588 178.159 217.141 183.084 217.831C187.235 218.411 192.188 219.957 196.117 217.803C196.588 217.555 196.173 216.837 195.702 217.085C193.682 218.19 191.441 218.19 189.2 217.914C186.792 217.61 184.385 217.196 181.977 216.864C177.329 216.229 172.652 215.705 167.948 215.318C163.327 214.931 158.54 214.379 153.919 214.655C149.63 214.904 146.448 217.113 143.099 219.626C138.644 222.94 134.217 226.281 129.762 229.595C129.347 229.954 129.762 230.672 130.177 230.34Z" fill="white"/>
<path d="M285.855 259.529C286.104 257.706 286.464 255.939 286.99 254.172C287.239 253.343 287.488 252.515 287.82 251.686C288.014 251.189 288.539 250.361 289.259 250.554C289.619 250.665 289.785 251.907 289.812 252.156C289.868 252.598 290.476 252.736 290.615 252.266C291.915 248.041 293.41 243.402 297.394 240.944C297.173 240.834 296.979 240.696 296.758 240.585C296.758 241.276 296.73 241.994 296.73 242.684C296.73 243.071 297.311 243.264 297.505 242.905C299.968 237.796 302.652 232.439 307.633 229.346C307.439 229.181 307.217 229.043 307.024 228.877C304.533 235.311 301.628 241.579 298.335 247.655C298.114 248.041 298.667 248.538 298.999 248.152C300.853 245.943 302.735 243.733 305.17 242.132C304.976 241.938 304.782 241.745 304.589 241.552C301.517 248.014 298.169 254.31 294.489 260.44C294.212 260.909 294.931 261.324 295.208 260.854C298.861 254.724 302.237 248.428 305.308 241.966C305.474 241.635 305.114 241.138 304.727 241.386C302.237 243.043 300.3 245.28 298.39 247.544C298.612 247.71 298.833 247.876 299.054 248.041C302.375 241.911 305.308 235.587 307.826 229.07C307.965 228.739 307.494 228.435 307.217 228.601C302.098 231.776 299.331 237.216 296.785 242.463C297.034 242.546 297.311 242.601 297.56 242.684C297.56 241.994 297.588 241.276 297.588 240.585C297.588 240.282 297.228 240.061 296.951 240.226C292.801 242.794 291.168 247.599 289.812 252.045C290.089 252.073 290.366 252.128 290.615 252.156C290.476 250.747 289.203 248.345 287.654 250.14C286.879 251.051 286.575 252.542 286.243 253.675C285.689 255.497 285.302 257.375 285.025 259.28C284.997 259.833 285.772 260.053 285.855 259.529Z" fill="white"/>
<path d="M92.5165 212.916C94.6749 211.756 96.8609 210.596 99.2406 209.961C101.759 209.298 104.249 209.519 106.767 209.851C111.776 210.513 116.784 211.176 121.765 211.839C122.291 211.922 122.291 211.093 121.765 211.01C116.424 210.292 111.056 209.519 105.716 208.884C103.253 208.58 100.901 208.58 98.5212 209.271C96.2521 209.933 94.1491 211.066 92.0738 212.17C91.6034 212.474 92.0461 213.164 92.5165 212.916Z" fill="white"/>
<path d="M260.84 25.6074C262.833 23.923 265.627 24.2543 267.813 25.3313C269.474 26.1321 270.83 27.7614 272.767 27.8442C274.565 27.8994 276.059 26.6844 277.581 25.8836C278.605 25.3589 279.657 24.9999 280.819 25.2484C282.064 25.497 283.143 26.2149 284.278 26.712C288.013 28.3413 290.504 26.0769 293.658 24.2819C294.544 23.7849 295.485 23.3431 296.508 23.2602C297.809 23.1498 298.971 23.7297 300.133 24.2267C301.96 24.9999 303.343 25.3037 305.197 24.5581C307.107 23.8125 308.656 23.923 310.565 24.6133C311.783 25.0551 312.945 25.6074 314.218 25.8836C316.127 26.3254 318.175 26.2149 319.614 24.7514C320.001 24.3648 319.393 23.7849 319.033 24.1715C317.179 26.0493 314.356 25.1656 312.226 24.3372C310.067 23.5087 307.854 22.6251 305.557 23.4811C304.118 24.0334 303.15 24.42 301.6 23.8953C300.548 23.5364 299.58 22.9565 298.501 22.6527C296.868 22.1556 295.346 22.4318 293.852 23.1774C292.136 24.0334 290.642 25.3865 288.844 26.1045C286.464 27.0434 284.61 25.8007 282.451 24.8895C280.874 24.2267 279.38 24.1163 277.803 24.8066C275.893 25.6627 274.039 27.5404 271.798 26.7396C270.608 26.3254 269.667 25.3589 268.588 24.7514C267.675 24.2543 266.679 23.8953 265.655 23.702C263.69 23.3431 261.781 23.6744 260.231 24.9723C259.844 25.3865 260.453 25.9664 260.84 25.6074Z" fill="white"/>
<path d="M270.802 44.468C271.328 44.468 271.328 43.6395 270.802 43.6395C270.276 43.6395 270.276 44.468 270.802 44.468Z" fill="white"/>
<path d="M276.336 47.478C277.637 45.1307 280.708 46.2629 282.617 47.0361C284.527 47.8093 286.242 48.2788 288.262 47.5884C289.923 47.0085 291.417 45.9039 293.132 45.5173C295.512 44.9651 296.868 46.9809 299.026 47.4504C302.402 48.1959 305.806 44.4404 308.988 46.0144C309.874 46.4562 310.482 47.0361 311.534 46.9533C312.502 46.8981 313.388 46.4286 314.329 46.2077C316.957 45.6002 319.697 46.0696 322.049 47.3675C322.519 47.616 322.934 46.8981 322.464 46.6495C320.97 45.8211 319.365 45.324 317.677 45.1584C316.819 45.0755 315.934 45.1031 315.076 45.2412C314.052 45.3793 313.111 45.8211 312.115 46.0144C310.759 46.2629 310.178 45.6002 309.071 45.1307C308.518 44.9098 307.909 44.7994 307.328 44.827C305.944 44.8822 304.616 45.4621 303.343 45.9316C301.711 46.5391 299.967 47.119 298.307 46.2905C296.896 45.6002 295.789 44.5508 294.129 44.5508C290.697 44.5785 288.29 47.8646 284.665 46.8705C281.981 46.1249 277.664 43.5015 275.672 47.0361C275.368 47.5332 276.087 47.9474 276.336 47.478Z" fill="white"/>
<path d="M249.495 80.5324C251.46 78.986 253.701 79.0688 255.86 80.063C257.049 80.6152 258.322 81.1399 259.567 80.3943C260.287 79.9525 260.757 79.2621 261.615 79.0136C262.528 78.7375 263.497 78.9308 264.382 79.1517C265.959 79.5383 267.481 80.2286 269.114 80.3391C271.051 80.4772 272.822 79.6487 274.704 79.4554C276.724 79.2621 278.135 80.4772 280.016 80.7533C281.843 81.0018 283.254 79.5383 285.08 79.8144C287.294 80.1458 289.48 80.8914 291.666 81.4437C292.192 81.5817 292.413 80.7809 291.887 80.6429C289.591 80.063 287.211 79.1793 284.859 78.9308C282.867 78.7099 281.428 80.3391 279.435 79.7316C277.581 79.1793 276.253 78.3785 274.261 78.6546C272.13 78.9584 270.193 79.7868 268.007 79.3174C266.319 78.9584 264.687 78.1576 262.943 78.0471C262.307 78.0195 261.643 78.0747 261.034 78.3233C260.259 78.627 259.844 79.2621 259.125 79.6764C257.464 80.6429 255.223 78.5994 253.452 78.4613C251.764 78.3233 250.215 78.9032 248.886 79.9249C248.471 80.2839 249.08 80.8638 249.495 80.5324Z" fill="white"/>
<path d="M90.8562 20.2779C91.382 20.2779 91.382 19.4495 90.8562 19.4495C90.3305 19.4495 90.3305 20.2779 90.8562 20.2779Z" fill="white"/>
<path d="M93.291 20.913C93.789 18.4553 97.0542 20.0293 98.2441 20.7749C99.6 21.6309 101.039 22.4041 102.699 21.9347C104.498 21.41 105.715 19.8636 107.708 19.7532C109.589 19.6703 111.416 20.5264 113.187 21.0786C114.708 21.5481 116.313 21.8795 117.891 21.4929C119.745 21.051 121.322 19.7532 123.204 19.4218C126.911 18.7866 130.26 21.7966 134.023 20.6368C134.521 20.4711 134.327 19.6703 133.802 19.836C129.872 21.0786 126.137 17.5992 122.152 18.8419C120.104 19.477 118.389 20.913 116.147 20.8301C114.072 20.7473 112.19 19.7532 110.226 19.2561C108.676 18.8695 107.099 18.759 105.605 19.4494C104.747 19.836 104 20.4711 103.142 20.8853C101.731 21.5481 100.541 21.1615 99.2679 20.4435C97.8844 19.6427 96.6945 18.7038 95.0066 18.8419C93.8167 18.9247 92.7652 19.5322 92.5438 20.7473C92.4055 21.2167 93.2079 21.4376 93.291 20.913Z" fill="white"/>
<path d="M95.809 182.153C99.1019 180.773 102.422 183.23 105.743 183.396C107.459 183.479 109.119 183.065 110.807 182.733C112.937 182.319 114.764 182.291 116.811 183.147C118.057 183.672 119.191 184.003 120.464 183.506C121.183 183.23 121.792 182.761 122.512 182.512C123.314 182.236 124.144 182.181 125.002 182.181C127.963 182.236 130.924 183.258 133.746 181.932C134.217 181.711 133.802 180.994 133.331 181.214C130.315 182.623 126.967 181.076 123.785 181.408C122.263 181.573 121.266 182.457 119.855 182.871C118.167 183.368 116.507 181.932 114.847 181.684C111.277 181.132 107.901 183.12 104.304 182.402C101.426 181.822 98.5208 180.137 95.5876 181.38C95.1172 181.573 95.3386 182.374 95.809 182.153Z" fill="white"/>
<path d="M35.9839 141.477C38.3985 141.477 40.3559 139.524 40.3559 137.114C40.3559 134.705 38.3985 132.751 35.9839 132.751C33.5693 132.751 31.6118 134.705 31.6118 137.114C31.6118 139.524 33.5693 141.477 35.9839 141.477Z" fill="#6DEAB4"/>
<path d="M290.476 111.488C292.173 111.488 293.548 110.116 293.548 108.423C293.548 106.73 292.173 105.358 290.476 105.358C288.78 105.358 287.405 106.73 287.405 108.423C287.405 110.116 288.78 111.488 290.476 111.488Z" fill="#6DEAB4"/>
<path d="M262.833 4.70331C264.086 4.70331 265.102 3.68952 265.102 2.43894C265.102 1.18836 264.086 0.174561 262.833 0.174561C261.579 0.174561 260.563 1.18836 260.563 2.43894C260.563 3.68952 261.579 4.70331 262.833 4.70331Z" fill="#6DEAB4"/>
<path d="M162.884 201.069C164.443 201.069 165.706 199.808 165.706 198.252C165.706 196.697 164.443 195.436 162.884 195.436C161.325 195.436 160.062 196.697 160.062 198.252C160.062 199.808 161.325 201.069 162.884 201.069Z" fill="#6DEAB4"/>
<path d="M32.7742 41.0991C34.5622 41.0991 36.0117 39.6526 36.0117 37.8682C36.0117 36.0838 34.5622 34.6373 32.7742 34.6373C30.9861 34.6373 29.5366 36.0838 29.5366 37.8682C29.5366 39.6526 30.9861 41.0991 32.7742 41.0991Z" fill="#6DEAB4"/>
<path d="M144.4 154.456C145.424 154.456 146.254 153.628 146.254 152.606C146.254 151.584 145.424 150.756 144.4 150.756C143.376 150.756 142.546 151.584 142.546 152.606C142.546 153.628 143.376 154.456 144.4 154.456Z" fill="#6DEAB4"/>
<path d="M319.392 170.196C320.951 170.196 322.215 168.935 322.215 167.38C322.215 165.824 320.951 164.563 319.392 164.563C317.833 164.563 316.57 165.824 316.57 167.38C316.57 168.935 317.833 170.196 319.392 170.196Z" fill="#6DEAB4"/>
<path d="M11.7441 216.754C12.9056 216.754 13.8471 215.814 13.8471 214.655C13.8471 213.496 12.9056 212.557 11.7441 212.557C10.5827 212.557 9.64111 213.496 9.64111 214.655C9.64111 215.814 10.5827 216.754 11.7441 216.754Z" fill="#6DEAB4"/>
<path d="M97.7464 53.6637C95.339 58.5514 92.904 63.4392 90.4966 68.3269C100.458 81.6647 110.42 94.9748 120.381 108.313C122.955 104.419 125.501 100.442 128.074 96.4383C134.134 86.939 139.917 77.5501 145.452 68.2441C143.57 63.4668 141.661 58.6619 139.779 53.8846C138.561 53.2495 137.344 52.642 136.126 52.0068C124.338 52.0345 112.551 52.0621 100.79 52.0897C99.7388 52.642 98.7426 53.1666 97.7464 53.6637Z" fill="white"/>
<path d="M90.8286 68.5477C92.9317 63.9361 95.09 59.3522 97.3037 54.7958C97.5251 54.3264 96.8333 53.8845 96.5843 54.3816C94.3706 58.9379 92.2122 63.5219 90.1092 68.1335C89.8878 68.603 90.6073 69.0448 90.8286 68.5477Z" fill="black"/>
<path d="M90.2752 69.0449C100.015 82.3826 109.949 95.5547 120.077 108.616C120.409 109.031 120.99 108.451 120.658 108.036C110.586 95.03 100.707 81.9132 90.9946 68.6307C90.6903 68.2165 89.9708 68.6307 90.2752 69.0449Z" fill="black"/>
<path d="M97.4971 54.3265C98.6592 53.7189 99.7938 53.0838 100.956 52.4763C101.426 52.2278 101.011 51.5098 100.541 51.7583C99.3787 52.3658 98.2442 53.001 97.082 53.6085C96.5839 53.8846 97.0266 54.575 97.4971 54.3265Z" fill="black"/>
<path d="M101.648 52.5314C110.282 52.5314 118.943 52.5314 127.576 52.5314C128.102 52.5314 128.102 51.703 127.576 51.703C118.943 51.703 110.282 51.703 101.648 51.703C101.122 51.703 101.122 52.5314 101.648 52.5314Z" fill="black"/>
<path d="M145.839 68.1611C144.095 63.5496 142.297 58.9932 140.443 54.4092C140.249 53.9122 139.447 54.1331 139.64 54.6301C141.494 59.1865 143.293 63.7705 145.036 68.3821C145.23 68.8791 146.032 68.6582 145.839 68.1611Z" fill="black"/>
<path d="M144.926 68.5755C136.818 81.8304 128.545 95.0024 120.105 108.064C119.8 108.506 120.52 108.92 120.824 108.478C129.264 95.4166 137.538 82.2722 145.645 68.9897C145.922 68.5479 145.203 68.106 144.926 68.5755Z" fill="black"/>
<path d="M139.945 53.5532C138.976 52.9457 138.008 52.3105 137.039 51.703C136.597 51.4269 136.182 52.1172 136.624 52.421C137.593 53.0285 138.561 53.6637 139.53 54.2712C140 54.5749 140.415 53.857 139.945 53.5532Z" fill="black"/>
<path d="M136.099 51.6202C128.876 51.6202 121.654 51.6202 114.46 51.6202C113.934 51.6202 113.934 52.4487 114.46 52.4487C121.682 52.4487 128.904 52.4487 136.099 52.4487C136.624 52.4487 136.624 51.6202 136.099 51.6202Z" fill="black"/>
<path d="M91.1606 68.9621C96.1137 66.8358 101.067 64.7095 106.02 62.5832C106.518 62.3622 106.075 61.6719 105.605 61.8652C100.652 63.9915 95.6986 66.1178 90.7455 68.2441C90.2751 68.465 90.6902 69.183 91.1606 68.9621Z" fill="black"/>
<path d="M97.6358 54.0778C100.68 54.5473 103.668 55.21 106.629 56.0384C107.155 56.1765 107.376 55.3757 106.85 55.2376C103.89 54.3816 100.901 53.7464 97.8572 53.277C97.3315 53.1942 97.0824 53.995 97.6358 54.0778Z" fill="black"/>
<path d="M106.407 55.9005C107.071 57.9716 107.652 60.0426 108.151 62.1689C108.261 62.6936 109.064 62.4727 108.953 61.948C108.455 59.8217 107.874 57.7506 107.21 55.6796C107.044 55.1825 106.241 55.3758 106.407 55.9005Z" fill="black"/>
<path d="M107.68 55.9833C115.096 55.9833 122.485 55.9833 129.9 55.9833C130.426 55.9833 130.426 55.1549 129.9 55.1549C122.485 55.1549 115.096 55.1549 107.68 55.1549C107.155 55.1549 107.155 55.9833 107.68 55.9833Z" fill="black"/>
<path d="M129.541 56.149C129.264 57.6678 128.987 59.2142 128.711 60.733C128.628 61.2577 129.43 61.4786 129.513 60.9539C129.79 59.4351 130.066 57.8887 130.343 56.3699C130.426 55.8452 129.624 55.6243 129.541 56.149Z" fill="black"/>
<path d="M108.594 62.2241C115.069 62.2241 121.544 62.2241 128.046 62.2241C128.572 62.2241 128.572 61.3956 128.046 61.3956C121.571 61.3956 115.096 61.3956 108.594 61.3956C108.068 61.3956 108.068 62.2241 108.594 62.2241Z" fill="black"/>
<path d="M130.703 55.9834C133.719 55.3482 136.707 54.7131 139.723 54.078C140.249 53.9675 140.028 53.1667 139.502 53.2772C136.486 53.9123 133.497 54.5474 130.481 55.1825C129.956 55.293 130.177 56.0938 130.703 55.9834Z" fill="black"/>
<path d="M129.319 61.9756C132.114 62.4175 134.715 63.9915 137.261 65.1789C139.973 66.4492 142.657 67.7194 145.368 68.9897C145.839 69.2106 146.282 68.4926 145.784 68.2717C142.906 66.9186 140.056 65.5931 137.178 64.24C134.743 63.0802 132.225 61.6167 129.541 61.1748C129.015 61.092 128.793 61.8928 129.319 61.9756Z" fill="black"/>
<path d="M108.843 63.4944C112.44 78.2957 116.009 93.1247 119.607 107.926C119.745 108.451 120.52 108.23 120.409 107.705C116.812 92.9037 113.242 78.0748 109.645 63.2735C109.507 62.7488 108.704 62.9698 108.843 63.4944Z" fill="black"/>
<path d="M128.157 64.4885C124.781 78.7375 121.986 93.1522 119.828 107.65C119.745 108.174 120.547 108.395 120.63 107.871C122.789 93.3731 125.583 78.986 128.959 64.7094C129.098 64.1847 128.295 63.9638 128.157 64.4885Z" fill="black"/>
<path d="M128.434 36.8466C129.679 33.6709 130.371 30.3296 130.482 26.9054C130.509 26.3807 129.679 26.3807 129.651 26.9054C129.541 30.2467 128.849 33.5052 127.631 36.6257C127.438 37.1227 128.24 37.316 128.434 36.8466Z" fill="black"/>
<path d="M134.106 37.3988C136.763 34.3888 139.751 31.7378 143.1 29.5011C143.542 29.1973 143.127 28.4794 142.684 28.7831C139.281 31.0475 136.209 33.7537 133.525 36.8189C133.166 37.2055 133.747 37.7854 134.106 37.3988Z" fill="black"/>
<path d="M139.557 42.5075C142.989 41.4858 146.531 41.0992 150.1 41.3753C150.626 41.4029 150.626 40.5745 150.1 40.5469C146.448 40.2707 142.85 40.6573 139.336 41.7067C138.838 41.8724 139.032 42.6732 139.557 42.5075Z" fill="black"/>
<path d="M81.2543 23.1498C81.5864 28.6174 78.5149 33.8366 73.5894 36.2114C73.3127 36.3495 73.3403 36.7637 73.5894 36.9294C78.0998 39.6356 80.1751 44.6062 81.365 49.4939C81.5034 50.0186 82.2781 49.7977 82.1675 49.273C80.9223 44.1643 78.7086 39.0004 74.0045 36.2114C74.0045 36.4599 74.0045 36.6808 74.0045 36.9294C79.179 34.4165 82.4442 28.866 82.0845 23.1498C82.0568 22.6251 81.2266 22.6251 81.2543 23.1498Z" fill="#E8E8E8"/>
<path d="M81.5588 23.1498C81.1991 28.8936 84.4643 34.4441 89.6388 36.9294C89.6388 36.6808 89.6388 36.4599 89.6388 36.2114C84.907 39.028 82.6933 44.1919 81.4481 49.3282C81.3097 49.8529 82.1122 50.0738 82.2506 49.5491C83.4404 44.6338 85.5158 39.6356 90.0538 36.9294C90.3029 36.7913 90.3305 36.3495 90.0538 36.2114C85.1284 33.8365 82.0292 28.6174 82.3612 23.1498C82.4166 22.6251 81.5865 22.6251 81.5588 23.1498Z" fill="#E8E8E8"/>
<path d="M225.114 225.597L225.114 225.597C224.257 226.849 222.854 227.625 220.352 229.009L220.35 229.011L220.108 228.573L220.353 229.009C219.006 229.767 217.809 230.332 216.875 230.742C217.257 232.319 217.639 233.902 218.021 235.484C218.375 236.95 218.729 238.416 219.083 239.878C221.117 238.29 223.242 236.681 225.459 235.072L225.464 235.069L225.464 235.069C226.903 234.047 228.317 233.051 229.732 232.082L229.86 231.994H230.014H230.015C231.149 231.994 232.778 231.994 234.766 231.967C239.318 231.884 241.184 231.705 242.39 231.569C242.502 231.557 242.608 231.545 242.711 231.533C243.742 231.414 244.399 231.338 246.196 231.415L246.197 231.415C246.32 231.421 246.444 231.427 246.568 231.433C248.293 231.518 250.165 231.61 252.133 230.688L252.138 230.686C253.042 230.274 253.577 229.827 253.96 229.302C254.683 228.29 254.787 227.183 254.771 226.537C254.302 226.38 253.702 226.179 252.975 225.959L252.972 225.958C250.391 225.158 248.466 224.739 246.849 224.386C246.471 224.304 246.109 224.225 245.76 224.146C245.603 224.111 245.449 224.076 245.296 224.042C241.015 223.09 238.745 222.586 235.879 221.561L225.114 225.597ZM225.114 225.597L225.117 225.592C225.598 224.873 225.787 224.287 225.953 223.776C225.974 223.709 225.995 223.644 226.017 223.581C226.194 223.046 226.395 222.54 226.988 221.86L226.997 221.85L227.005 221.839C227.165 221.633 228.015 220.733 229.105 220.251L225.114 225.597Z" fill="black" stroke="black"/>
<path d="M195.444 203.218L195.445 203.218C197.176 201.748 198.514 200.602 199.571 199.696C203.068 196.7 203.503 196.327 204.982 195.548C210.117 192.898 216.361 191.637 221.698 191.8C224.366 191.882 226.784 192.319 228.713 193.098C230.645 193.879 232.043 194.985 232.751 196.38L232.751 196.38C233.652 198.154 233.431 200.39 232.531 202.969C231.634 205.538 230.107 208.33 228.553 211.156L228.553 211.156C226.067 215.682 223.088 218.902 221.182 220.941C218.356 223.954 215.666 226.199 213.608 227.761L213.177 228.087L213.537 228.491C214.412 229.474 215.669 230.974 216.981 232.938L216.982 232.939C218.615 235.37 220.031 237.51 220.727 240.612L220.727 240.612C221.013 241.883 221.301 243.893 220.998 246.47C215.275 249.957 210.719 252.979 207.627 255.054L207.626 255.054C205.792 256.287 204.288 257.324 202.977 258.228C199.243 260.801 197.075 262.296 193.295 264.162L193.295 264.162C187.854 266.849 183.515 268.137 181.65 268.657C179.95 269.122 175.641 270.217 169.987 270.628C165.685 270.933 163.414 271.056 160.627 269.997L160.623 269.995C159.677 269.645 156.905 268.551 154.778 265.924C151.412 261.744 151.923 256.435 152.341 252.429L152.341 252.428C152.639 249.53 153.672 243.538 158.376 236.36C160.244 233.551 162.078 231.408 172.122 222.682L172.123 222.682C177.913 217.635 180.879 215.227 184.322 212.433C187.123 210.159 190.238 207.63 195.444 203.218Z" fill="white" stroke="black"/>
<path opacity="0.18" d="M221.614 212.748L221.615 212.747C225.11 208.096 227.514 203.699 229.136 200.237C229.167 202.927 228.864 206.304 227.631 209.996L227.63 209.999C226.08 214.747 223.69 217.894 222.093 219.955L222.091 219.957C219.225 223.689 216.166 226.197 213.951 227.78L213.559 228.06L213.825 228.462C215.563 231.09 217.301 233.744 219.04 236.399C211.881 241.515 200.609 248.382 185.406 252.864L185.404 252.864C184.341 253.181 180.165 254.412 176.129 255.263C174.107 255.69 172.144 256.016 170.631 256.09C169.871 256.127 169.256 256.099 168.814 256.002C168.347 255.9 168.215 255.753 168.185 255.683L168.185 255.683C168.17 255.649 168.139 255.556 168.265 255.314C168.396 255.063 168.662 254.724 169.125 254.27C170.046 253.364 171.63 252.112 174.079 250.315C176.732 248.369 180.366 245.81 185.212 242.398C189.299 239.519 194.249 236.034 200.198 231.797L200.198 231.797C209.383 225.254 215.53 220.797 221.614 212.748Z" fill="#9B9797" stroke="black"/>
<path d="M194.443 264.251C194.443 264.251 194.443 264.251 194.442 264.251L194.342 264.061M194.443 264.251L194.342 264.061M194.443 264.251C199.234 261.707 203.659 258.603 208.051 255.52L208.078 255.501C212.469 252.419 216.828 249.359 221.532 246.854C221.532 246.854 221.533 246.854 221.533 246.853L221.456 246.709C221.467 246.697 221.475 246.691 221.478 246.689C221.479 246.688 221.48 246.688 221.48 246.688L221.478 246.689C221.47 246.693 221.461 246.698 221.453 246.702L221.298 246.412M194.443 264.251L194.208 263.809M194.342 264.061C194.342 264.061 194.342 264.061 194.342 264.061M194.342 264.061C192.508 265.047 190.628 265.951 188.679 266.742L194.208 263.809M194.342 264.061L194.208 263.809M194.342 264.061L194.208 263.809M194.342 264.061C198.121 262.029 201.699 259.649 205.255 257.191C206.068 256.63 206.88 256.064 207.693 255.497C212.143 252.396 216.625 249.272 221.452 246.703L221.298 246.412M194.208 263.809C198.982 261.275 203.394 258.178 207.803 255.083C212.186 252.006 216.567 248.931 221.298 246.412M194.208 263.809L157.654 269.719C161.916 272.121 167.284 271.873 171.988 271.376C177.771 270.796 183.472 269.387 188.867 267.206C195.815 264.384 201.897 260.146 207.984 255.904C212.443 252.797 216.905 249.687 221.713 247.13C222.184 246.882 221.769 246.164 221.298 246.412M152.352 260.719L152.646 260.661L152.352 260.719C152.198 259.966 152.086 259.2 152.009 258.431L152.352 260.719ZM174.304 220.193L174.534 220.455L174.305 220.193C174.305 220.193 174.305 220.193 174.304 220.193Z" fill="white" stroke="black"/>
<mask id="path-60-inside-1_58723_270" fill="white">
<path d="M177.522 251.686C186.598 248.179 194.817 242.933 202.62 237.189C206.466 234.372 210.257 231.445 214.02 228.518C217.728 225.618 221.27 222.553 224.148 218.825C224.48 218.411 223.761 217.997 223.429 218.411C220.496 222.222 216.815 225.287 213.052 228.242C209.344 231.141 205.608 234.013 201.79 236.802C194.153 242.38 186.156 247.517 177.301 250.913C176.803 251.079 177.024 251.88 177.522 251.686Z"/>
</mask>
<path d="M177.522 251.686C186.598 248.179 194.817 242.933 202.62 237.189C206.466 234.372 210.257 231.445 214.02 228.518C217.728 225.618 221.27 222.553 224.148 218.825C224.48 218.411 223.761 217.997 223.429 218.411C220.496 222.222 216.815 225.287 213.052 228.242C209.344 231.141 205.608 234.013 201.79 236.802C194.153 242.38 186.156 247.517 177.301 250.913C176.803 251.079 177.024 251.88 177.522 251.686Z" fill="black"/>
<path d="M177.522 251.686L177.162 250.754L177.16 250.754L177.522 251.686ZM202.62 237.189L202.029 236.382L202.027 236.383L202.62 237.189ZM214.02 228.518L214.634 229.307L214.636 229.306L214.02 228.518ZM224.148 218.825L223.368 218.2L223.362 218.207L223.357 218.214L224.148 218.825ZM223.429 218.411L222.648 217.786L222.642 217.793L222.636 217.801L223.429 218.411ZM213.052 228.242L213.668 229.03L213.669 229.028L213.052 228.242ZM177.301 250.913L177.616 251.862L177.638 251.855L177.659 251.847L177.301 250.913ZM177.883 252.619C187.078 249.066 195.379 243.761 203.213 237.994L202.027 236.383C194.255 242.105 186.118 247.293 177.162 250.754L177.883 252.619ZM203.211 237.996C207.07 235.17 210.87 232.235 214.634 229.307L213.406 227.729C209.644 230.655 205.863 233.575 202.029 236.382L203.211 237.996ZM214.636 229.306C218.364 226.391 221.985 223.264 224.94 219.436L223.357 218.214C220.556 221.842 217.092 224.846 213.404 227.73L214.636 229.306ZM224.928 219.451C225.189 219.125 225.31 218.692 225.184 218.252C225.07 217.856 224.795 217.59 224.536 217.441C224.037 217.153 223.195 217.104 222.648 217.786L224.209 219.037C223.995 219.304 223.678 219.255 223.538 219.174C223.46 219.129 223.323 219.018 223.261 218.803C223.187 218.545 223.273 218.318 223.368 218.2L224.928 219.451ZM222.636 217.801C219.786 221.505 216.193 224.505 212.434 227.455L213.669 229.028C217.438 226.07 221.206 222.939 224.221 219.021L222.636 217.801ZM212.436 227.454C208.732 230.351 205.006 233.215 201.2 235.995L202.38 237.61C206.211 234.811 209.956 231.932 213.668 229.03L212.436 227.454ZM201.2 235.995C193.589 241.553 185.676 246.63 176.943 249.98L177.659 251.847C186.636 248.404 194.716 243.207 202.38 237.61L201.2 235.995ZM176.985 249.964C176.1 250.259 175.915 251.137 176.075 251.705C176.158 251.998 176.348 252.318 176.688 252.525C177.059 252.75 177.494 252.77 177.884 252.619L177.16 250.754C177.301 250.7 177.522 250.692 177.727 250.816C177.9 250.921 177.974 251.068 178.001 251.164C178.028 251.262 178.032 251.391 177.972 251.53C177.902 251.691 177.765 251.813 177.616 251.862L176.985 249.964Z" fill="black" mask="url(#path-60-inside-1_58723_270)"/>
<mask id="path-62-inside-2_58723_270" fill="white">
<path d="M213.605 228.435C218.946 232.909 221.768 239.84 221.021 246.771C220.966 247.296 221.796 247.296 221.851 246.771C222.598 239.647 219.665 232.467 214.186 227.855C213.799 227.496 213.218 228.076 213.605 228.435Z"/>
</mask>
<path d="M213.605 228.435C218.946 232.909 221.768 239.84 221.021 246.771C220.966 247.296 221.796 247.296 221.851 246.771C222.598 239.647 219.665 232.467 214.186 227.855C213.799 227.496 213.218 228.076 213.605 228.435Z" fill="black"/>
<path d="M213.605 228.435L212.926 229.169L212.944 229.186L212.963 229.202L213.605 228.435ZM221.021 246.771L220.027 246.664L220.027 246.666L221.021 246.771ZM221.851 246.771L222.846 246.876L222.846 246.875L221.851 246.771ZM214.186 227.855L213.507 228.589L213.524 228.605L213.542 228.62L214.186 227.855ZM212.963 229.202C218.05 233.463 220.738 240.067 220.027 246.664L222.015 246.878C222.799 239.612 219.842 232.355 214.247 227.669L212.963 229.202ZM220.027 246.666C219.983 247.085 220.119 247.503 220.441 247.8C220.733 248.071 221.095 248.165 221.395 248.165C221.975 248.165 222.751 247.774 222.846 246.876L220.857 246.666C220.873 246.516 220.956 246.37 221.078 246.275C221.185 246.193 221.298 246.165 221.395 246.165C221.487 246.165 221.648 246.193 221.799 246.332C221.978 246.498 222.032 246.72 222.016 246.876L220.027 246.666ZM222.846 246.875C223.628 239.417 220.56 231.913 214.83 227.09L213.542 228.62C218.77 233.021 221.569 239.876 220.857 246.667L222.846 246.875ZM214.866 227.122C214.183 226.488 213.325 226.743 212.899 227.168C212.683 227.384 212.503 227.7 212.48 228.082C212.455 228.495 212.62 228.885 212.926 229.169L214.285 227.702C214.397 227.805 214.489 227.989 214.476 228.204C214.465 228.387 214.382 228.513 214.312 228.584C214.24 228.655 214.126 228.725 213.97 228.74C213.788 228.756 213.617 228.691 213.507 228.589L214.866 227.122Z" fill="black" mask="url(#path-62-inside-2_58723_270)"/>
<mask id="path-64-inside-3_58723_270" fill="white">
<path d="M220.966 239.067C222.543 238.597 223.927 237.272 225.255 236.333C226.915 235.173 228.548 234.013 230.208 232.853C230.651 232.55 230.236 231.832 229.793 232.135C228.299 233.185 226.777 234.262 225.283 235.311C223.899 236.278 222.377 237.769 220.744 238.266C220.219 238.404 220.44 239.205 220.966 239.067Z"/>
</mask>
<path d="M220.966 239.067C222.543 238.597 223.927 237.272 225.255 236.333C226.915 235.173 228.548 234.013 230.208 232.853C230.651 232.55 230.236 231.832 229.793 232.135C228.299 233.185 226.777 234.262 225.283 235.311C223.899 236.278 222.377 237.769 220.744 238.266C220.219 238.404 220.44 239.205 220.966 239.067Z" fill="black"/>
<path d="M220.966 239.067L221.22 240.034L221.236 240.03L221.251 240.025L220.966 239.067ZM225.255 236.333L224.682 235.513L224.678 235.516L225.255 236.333ZM230.208 232.853L229.642 232.029L229.635 232.034L230.208 232.853ZM229.793 232.135L229.227 231.311L229.218 231.317L229.793 232.135ZM225.283 235.311L225.855 236.131L225.857 236.129L225.283 235.311ZM220.744 238.266L220.998 239.233L221.017 239.228L221.036 239.222L220.744 238.266ZM221.251 240.025C222.199 239.743 223.047 239.218 223.786 238.689C224.158 238.423 224.52 238.143 224.858 237.881C225.202 237.615 225.52 237.37 225.832 237.149L224.678 235.516C224.325 235.765 223.973 236.037 223.635 236.299C223.291 236.565 222.959 236.821 222.622 237.062C221.942 237.549 221.31 237.921 220.681 238.108L221.251 240.025ZM225.828 237.153C226.66 236.571 227.484 235.99 228.307 235.411C229.131 234.831 229.952 234.252 230.781 233.673L229.635 232.034C228.803 232.615 227.978 233.196 227.156 233.776C226.332 234.356 225.51 234.934 224.682 235.513L225.828 237.153ZM230.774 233.678C231.524 233.163 231.5 232.287 231.198 231.766C231.045 231.501 230.781 231.239 230.404 231.122C229.995 230.995 229.57 231.075 229.227 231.311L230.359 232.96C230.237 233.044 230.03 233.1 229.81 233.032C229.621 232.973 229.516 232.853 229.467 232.767C229.416 232.679 229.382 232.558 229.404 232.416C229.43 232.253 229.523 232.11 229.642 232.029L230.774 233.678ZM229.218 231.317C228.47 231.842 227.715 232.374 226.962 232.906C226.207 233.438 225.454 233.969 224.708 234.493L225.857 236.129C226.605 235.604 227.36 235.072 228.114 234.541C228.868 234.009 229.621 233.478 230.368 232.954L229.218 231.317ZM224.71 234.491C224.339 234.75 223.965 235.04 223.604 235.323C223.235 235.611 222.879 235.892 222.515 236.158C221.78 236.698 221.103 237.111 220.453 237.309L221.036 239.222C222.019 238.923 222.919 238.343 223.698 237.771C224.092 237.482 224.478 237.178 224.835 236.899C225.199 236.614 225.534 236.355 225.855 236.131L224.71 234.491ZM220.49 237.299C220.09 237.404 219.763 237.665 219.584 238.031C219.418 238.372 219.414 238.736 219.497 239.036C219.58 239.337 219.769 239.643 220.08 239.85C220.411 240.072 220.82 240.139 221.22 240.034L220.712 238.099C220.849 238.063 221.033 238.082 221.191 238.188C221.329 238.28 221.397 238.403 221.425 238.503C221.452 238.604 221.459 238.75 221.382 238.906C221.294 239.088 221.136 239.197 220.998 239.233L220.49 237.299Z" fill="black" mask="url(#path-64-inside-3_58723_270)"/>
<mask id="path-66-inside-4_58723_270" fill="white">
<path d="M216.4 230.837C219.527 229.54 222.405 227.772 225.006 225.591C225.421 225.232 224.812 224.652 224.425 225.011C221.962 227.11 219.195 228.794 216.207 230.037C215.709 230.258 215.93 231.058 216.4 230.837Z"/>
</mask>
<path d="M216.4 230.837C219.527 229.54 222.405 227.772 225.006 225.591C225.421 225.232 224.812 224.652 224.425 225.011C221.962 227.11 219.195 228.794 216.207 230.037C215.709 230.258 215.93 231.058 216.4 230.837Z" fill="black"/>
<path d="M216.4 230.837L216.017 229.914L215.996 229.923L215.975 229.932L216.4 230.837ZM225.006 225.591L225.649 226.357L225.655 226.352L225.66 226.347L225.006 225.591ZM224.425 225.011L225.074 225.772L225.09 225.759L225.105 225.744L224.425 225.011ZM216.207 230.037L215.823 229.113L215.812 229.118L215.801 229.123L216.207 230.037ZM216.784 231.761C220.008 230.423 222.973 228.602 225.649 226.357L224.364 224.825C221.838 226.943 219.047 228.656 216.017 229.914L216.784 231.761ZM225.66 226.347C225.975 226.075 226.165 225.683 226.144 225.25C226.125 224.852 225.934 224.529 225.715 224.316C225.291 223.902 224.43 223.643 223.745 224.277L225.105 225.744C224.989 225.851 224.819 225.911 224.648 225.896C224.5 225.882 224.391 225.818 224.319 225.748C224.248 225.679 224.156 225.546 224.146 225.346C224.135 225.112 224.245 224.927 224.352 224.834L225.66 226.347ZM223.776 224.25C221.395 226.28 218.717 227.91 215.823 229.113L216.591 230.96C219.673 229.678 222.53 227.94 225.074 225.772L223.776 224.25ZM215.801 229.123C215.009 229.474 214.826 230.289 214.972 230.854C215.047 231.141 215.23 231.48 215.587 231.694C215.986 231.933 216.444 231.922 216.826 231.743L215.975 229.932C216.122 229.864 216.376 229.835 216.616 229.979C216.815 230.098 216.886 230.265 216.908 230.352C216.951 230.516 216.906 230.82 216.612 230.951L215.801 229.123Z" fill="black" mask="url(#path-66-inside-4_58723_270)"/>
<path d="M224.701 224.903C224.701 224.903 224.7 224.903 224.699 224.903C224.697 224.903 224.694 224.903 224.691 224.902C224.684 224.9 224.675 224.898 224.665 224.893C224.645 224.884 224.628 224.87 224.615 224.856C224.604 224.842 224.599 224.831 224.597 224.826C224.596 224.821 224.596 224.818 224.596 224.818V224.818V224.818C224.596 224.817 224.596 224.815 224.597 224.809C224.599 224.804 224.604 224.793 224.615 224.779C224.628 224.765 224.645 224.751 224.665 224.742C224.675 224.737 224.684 224.735 224.691 224.733C224.694 224.733 224.697 224.732 224.699 224.732C224.7 224.732 224.701 224.732 224.701 224.732C224.701 224.732 224.702 224.732 224.704 224.732C224.706 224.732 224.709 224.733 224.712 224.733C224.719 224.735 224.728 224.737 224.738 224.742C224.758 224.751 224.775 224.765 224.787 224.779C224.799 224.793 224.804 224.804 224.805 224.809C224.807 224.815 224.807 224.817 224.807 224.818V224.818V224.818C224.807 224.818 224.807 224.821 224.805 224.826C224.804 224.831 224.799 224.842 224.787 224.856C224.775 224.87 224.758 224.884 224.738 224.893C224.728 224.898 224.719 224.9 224.712 224.902C224.709 224.903 224.706 224.903 224.704 224.903C224.702 224.903 224.701 224.903 224.701 224.903Z" fill="black" stroke="black"/>
<mask id="path-69-inside-5_58723_270" fill="white">
<path d="M225.698 224.238C226.168 223.133 226.666 221.918 227.552 221.062C228.741 219.902 230.18 220.068 231.702 220.399C234.525 221.034 237.292 221.918 240.059 222.719C242.632 223.437 245.206 224.072 247.862 224.376C249.412 224.541 250.712 224.735 252.096 225.425C253.12 225.922 254.005 226.419 255.14 226.53C255.666 226.585 255.666 225.757 255.14 225.701C253.618 225.563 252.428 224.514 250.989 224.044C249.55 223.575 247.945 223.603 246.451 223.354C243.186 222.829 240.004 221.835 236.849 220.896C235.3 220.455 233.75 220.013 232.173 219.654C231.01 219.405 229.793 219.101 228.631 219.46C226.611 220.068 225.642 222.222 224.895 224.017C224.701 224.514 225.504 224.735 225.698 224.238Z"/>
</mask>
<path d="M225.698 224.238C226.168 223.133 226.666 221.918 227.552 221.062C228.741 219.902 230.18 220.068 231.702 220.399C234.525 221.034 237.292 221.918 240.059 222.719C242.632 223.437 245.206 224.072 247.862 224.376C249.412 224.541 250.712 224.735 252.096 225.425C253.12 225.922 254.005 226.419 255.14 226.53C255.666 226.585 255.666 225.757 255.14 225.701C253.618 225.563 252.428 224.514 250.989 224.044C249.55 223.575 247.945 223.603 246.451 223.354C243.186 222.829 240.004 221.835 236.849 220.896C235.3 220.455 233.75 220.013 232.173 219.654C231.01 219.405 229.793 219.101 228.631 219.46C226.611 220.068 225.642 222.222 224.895 224.017C224.701 224.514 225.504 224.735 225.698 224.238Z" fill="black"/>
<path d="M225.698 224.238L224.778 223.846L224.772 223.86L224.766 223.875L225.698 224.238ZM227.552 221.062L228.247 221.781L228.25 221.778L227.552 221.062ZM231.702 220.399L231.922 219.424L231.915 219.422L231.702 220.399ZM240.059 222.719L239.781 223.68L239.79 223.682L240.059 222.719ZM247.862 224.376L247.749 225.369L247.756 225.37L247.862 224.376ZM252.096 225.425L251.649 226.32L251.659 226.325L252.096 225.425ZM255.14 226.53L255.244 225.535L255.237 225.534L255.14 226.53ZM255.14 225.701L255.244 224.707L255.237 224.706L255.23 224.705L255.14 225.701ZM246.451 223.354L246.615 222.368L246.61 222.367L246.451 223.354ZM236.849 220.896L237.134 219.938L237.123 219.935L236.849 220.896ZM232.173 219.654L232.395 218.679L232.382 218.676L232.173 219.654ZM228.631 219.46L228.919 220.418L228.926 220.416L228.631 219.46ZM224.895 224.017L223.972 223.633L223.968 223.643L223.963 223.654L224.895 224.017ZM226.618 224.63C227.111 223.472 227.536 222.468 228.247 221.781L226.857 220.343C225.796 221.368 225.225 222.794 224.778 223.846L226.618 224.63ZM228.25 221.778C229.03 221.017 229.966 221.045 231.49 221.376L231.915 219.422C230.395 219.091 228.453 218.787 226.854 220.346L228.25 221.778ZM231.483 221.375C234.266 222.001 236.979 222.868 239.781 223.68L240.337 221.758C237.605 220.968 234.784 220.068 231.922 219.424L231.483 221.375ZM239.79 223.682C242.378 224.404 245.012 225.056 247.749 225.369L247.976 223.382C245.399 223.088 242.887 222.47 240.328 221.756L239.79 223.682ZM247.756 225.37C249.288 225.534 250.436 225.714 251.649 226.32L252.542 224.53C250.989 223.755 249.536 223.549 247.969 223.381L247.756 225.37ZM251.659 226.325C252.61 226.786 253.686 227.393 255.043 227.525L255.237 225.534C254.324 225.446 253.63 225.058 252.533 224.526L251.659 226.325ZM255.035 227.524C255.452 227.568 255.87 227.433 256.168 227.112C256.44 226.819 256.534 226.458 256.534 226.157C256.534 225.573 256.14 224.801 255.244 224.707L255.035 226.696C254.887 226.68 254.741 226.598 254.646 226.475C254.563 226.369 254.534 226.255 254.534 226.157C254.534 226.063 254.563 225.902 254.703 225.751C254.869 225.572 255.09 225.519 255.244 225.535L255.035 227.524ZM255.23 224.705C254.668 224.654 254.133 224.433 253.485 224.105C252.885 223.801 252.115 223.36 251.299 223.094L250.679 224.995C251.302 225.198 251.847 225.517 252.581 225.889C253.269 226.238 254.089 226.61 255.049 226.697L255.23 224.705ZM251.299 223.094C250.477 222.826 249.632 222.707 248.848 222.622C248.031 222.534 247.325 222.486 246.615 222.368L246.287 224.341C247.071 224.471 247.915 224.533 248.634 224.611C249.386 224.692 250.062 224.794 250.679 224.995L251.299 223.094ZM246.61 222.367C243.424 221.855 240.313 220.884 237.134 219.938L236.564 221.855C239.694 222.787 242.948 223.804 246.292 224.341L246.61 222.367ZM237.123 219.935C235.578 219.494 234.003 219.045 232.395 218.679L231.951 220.629C233.497 220.981 235.021 221.415 236.575 221.858L237.123 219.935ZM232.382 218.676C231.309 218.446 229.8 218.053 228.336 218.505L228.926 220.416C229.785 220.15 230.712 220.364 231.964 220.632L232.382 218.676ZM228.343 218.503C227.045 218.893 226.132 219.77 225.467 220.719C224.809 221.658 224.344 222.739 223.972 223.633L225.818 224.401C226.194 223.5 226.586 222.606 227.104 221.867C227.615 221.139 228.196 220.635 228.919 220.418L228.343 218.503ZM223.963 223.654C223.811 224.044 223.831 224.483 224.06 224.855C224.27 225.196 224.594 225.384 224.886 225.464C225.454 225.621 226.302 225.44 226.629 224.601L224.766 223.875C224.819 223.738 224.935 223.619 225.079 223.56C225.204 223.508 225.322 223.51 225.417 223.536C225.508 223.561 225.655 223.632 225.763 223.807C225.891 224.014 225.882 224.238 225.827 224.38L223.963 223.654Z" fill="black" mask="url(#path-69-inside-5_58723_270)"/>
<mask id="path-71-inside-6_58723_270" fill="white">
<path d="M230.098 233.461C236.019 232.577 241.886 232.439 247.863 232.329C249.938 232.301 252.152 232.053 253.812 230.699C255.223 229.54 256.026 227.855 255.638 226.06C255.527 225.536 254.725 225.756 254.836 226.281C255.361 228.794 253.092 230.644 250.851 231.197C248.554 231.749 246.064 231.473 243.712 231.528C239.063 231.611 234.47 231.997 229.876 232.688C229.351 232.743 229.6 233.544 230.098 233.461Z"/>
</mask>
<path d="M230.098 233.461C236.019 232.577 241.886 232.439 247.863 232.329C249.938 232.301 252.152 232.053 253.812 230.699C255.223 229.54 256.026 227.855 255.638 226.06C255.527 225.536 254.725 225.756 254.836 226.281C255.361 228.794 253.092 230.644 250.851 231.197C248.554 231.749 246.064 231.473 243.712 231.528C239.063 231.611 234.47 231.997 229.876 232.688C229.351 232.743 229.6 233.544 230.098 233.461Z" fill="black"/>
<path d="M230.098 233.461L229.95 232.472L229.942 232.473L229.934 232.474L230.098 233.461ZM247.863 232.329L247.849 231.329L247.844 231.329L247.863 232.329ZM253.812 230.699L254.444 231.475L254.447 231.472L253.812 230.699ZM255.638 226.06L254.66 226.267L254.661 226.271L255.638 226.06ZM254.836 226.281L255.814 226.076L255.814 226.075L254.836 226.281ZM250.851 231.197L251.085 232.169L251.09 232.168L250.851 231.197ZM243.712 231.528L243.73 232.528L243.735 232.528L243.712 231.528ZM229.876 232.688L229.981 233.682L230.003 233.68L230.025 233.677L229.876 232.688ZM230.245 234.45C236.094 233.577 241.899 233.439 247.881 233.329L247.844 231.329C241.872 231.439 235.945 231.577 229.95 232.472L230.245 234.45ZM247.876 233.329C249.974 233.301 252.498 233.06 254.444 231.475L253.18 229.924C251.805 231.045 249.902 231.302 247.849 231.329L247.876 233.329ZM254.447 231.472C256.073 230.136 257.1 228.096 256.616 225.849L254.661 226.271C254.951 227.615 254.373 228.944 253.177 229.927L254.447 231.472ZM256.617 225.854C256.53 225.445 256.278 225.097 255.9 224.907C255.552 224.731 255.184 224.732 254.888 224.813C254.309 224.973 253.667 225.585 253.857 226.488L255.814 226.075C255.844 226.219 255.813 226.391 255.714 226.531C255.627 226.652 255.516 226.715 255.419 226.741C255.325 226.767 255.171 226.778 255.001 226.693C254.801 226.592 254.691 226.414 254.66 226.267L256.617 225.854ZM253.857 226.486C254.041 227.364 253.755 228.137 253.147 228.795C252.519 229.474 251.576 229.988 250.612 230.226L251.09 232.168C252.368 231.853 253.679 231.166 254.615 230.153C255.57 229.12 256.157 227.711 255.814 226.076L253.857 226.486ZM250.617 230.224C249.58 230.474 248.473 230.542 247.296 230.549C246.197 230.555 244.841 230.501 243.688 230.528L243.735 232.528C244.934 232.499 246 232.556 247.308 232.549C248.539 232.542 249.825 232.472 251.085 232.169L250.617 230.224ZM243.694 230.528C239.001 230.612 234.364 231.002 229.728 231.699L230.025 233.677C234.575 232.993 239.125 232.61 243.73 232.528L243.694 230.528ZM229.772 231.693C229.354 231.737 228.952 231.962 228.734 232.379C228.539 232.749 228.562 233.134 228.645 233.412C228.801 233.933 229.368 234.596 230.262 234.447L229.934 232.474C230.103 232.446 230.267 232.499 230.381 232.585C230.48 232.659 230.535 232.751 230.561 232.84C230.585 232.921 230.613 233.101 230.504 233.308C230.371 233.562 230.135 233.666 229.981 233.682L229.772 231.693Z" fill="black" mask="url(#path-71-inside-6_58723_270)"/>
<path d="M251.1 227.965C253.148 226.502 255.223 225.038 257.271 223.575C257.409 222.636 257.852 220.592 259.54 218.853C260.038 218.328 261.2 217.113 262.943 216.782C264.77 216.423 266.181 217.251 267.758 217.969C270.304 219.129 272.767 219.571 277.637 220.51C281.483 221.228 283.42 221.587 286.187 221.448C289.95 221.228 292.635 220.233 294.24 221.807C294.406 221.973 295.097 222.719 295.042 223.63C294.959 224.79 293.714 225.535 292.718 226.115C288.373 228.601 285.938 229.319 285.938 229.319C279.795 231.113 276.696 232.025 274.04 232.246C271.881 232.411 268.81 232.494 265.102 231.914C264.023 235.615 260.757 237.989 257.686 237.796C253.729 237.548 250.076 233.102 251.1 227.965Z" fill="black"/>
<path d="M211.364 203.554C211.973 201.704 213.107 199.357 215.238 198.584C216.621 198.087 217.894 198.418 218.309 198.529C220.883 199.164 226.168 198.252 236.711 196.457C241.941 195.574 248.554 194.276 256.164 192.343C256.191 193.751 256.164 195.601 256.081 197.755C255.887 202.588 255.389 206.233 255.278 207.089C254.808 210.513 253.978 216.202 251.459 223.105C250.823 224.873 250.187 226.336 249.744 227.33C250.823 227.827 251.985 228.49 253.12 229.429C257.796 233.157 259.152 238.431 259.595 240.668C258.931 241.469 257.935 242.656 256.662 244.009C251.515 249.477 246.755 252.542 237.679 258.148C232.09 261.6 227.994 264.113 221.436 267.979C213.467 272.673 207.02 276.318 198.995 278.61C197.003 279.19 193.848 279.963 189.863 279.549C187.926 279.356 184.44 278.997 181.092 276.567C176.803 273.474 175.447 268.945 174.893 266.957C173.648 262.511 174.118 258.341 175.281 254.006C176.083 250.968 178.989 240.889 189.089 229.539C191.109 227.275 196.864 222.166 208.32 211.949C211.087 209.491 213.356 207.476 214.878 206.15C213.716 205.266 212.554 204.41 211.364 203.554Z" fill="#FBF9F9"/>
<path opacity="0.18" d="M248.997 195.905C248.36 198.335 247.337 201.842 245.787 205.957C231.647 243.347 200.046 259.501 202.62 263.533C204.502 266.515 222.543 259.087 235.549 251.272C245.289 245.418 252.539 239.149 257.381 234.427C256.606 233.295 255.417 231.749 253.618 230.285C251.875 228.877 250.214 228.021 248.969 227.496C249.827 226.253 250.962 224.376 251.93 221.973C252.566 220.427 253.12 218.77 253.839 215.401C255.002 210.071 255.472 205.846 255.61 204.521C255.942 201.345 256.247 197.231 256.191 192.37C253.784 193.53 251.404 194.718 248.997 195.905Z" fill="#9B9797"/>
<path d="M255.776 192.343C255.804 197.562 255.472 202.781 254.753 207.973C254.088 212.639 253.258 217.444 251.543 221.863C249.689 226.64 246.506 230.119 242.66 233.405C238.731 236.747 234.774 240.033 230.817 243.319C226.279 247.102 221.713 250.858 217.175 254.641C216.76 254.972 217.341 255.552 217.756 255.221C226.085 248.317 234.414 241.441 242.688 234.455C246.34 231.362 249.661 228.159 251.653 223.713C253.59 219.405 254.531 214.683 255.278 210.044C256.219 204.189 256.662 198.28 256.606 192.343C256.606 191.791 255.776 191.791 255.776 192.343Z" fill="black"/>
<path d="M211.835 204.328C212.969 204.935 214.104 205.543 215.266 206.15C215.736 206.399 216.152 205.681 215.681 205.432C214.547 204.825 213.412 204.217 212.25 203.61C211.78 203.361 211.364 204.079 211.835 204.328Z" fill="black"/>
<path d="M215.266 205.819C205.415 213.827 195.066 221.752 186.848 231.473C179.764 239.84 173.925 250.444 173.953 261.683C173.953 266.626 175.309 271.79 178.961 275.297C182.614 278.831 187.899 280.212 192.88 279.963C198.967 279.66 204.751 277.257 210.174 274.606C215.985 271.762 221.492 268.393 227.026 265.052C238.427 258.148 251.155 251.714 259.706 241.193C260.038 240.779 259.457 240.199 259.125 240.613C251.958 249.45 241.885 255.11 232.284 260.909C226.998 264.113 221.769 267.371 216.373 270.409C211.087 273.391 205.581 276.235 199.742 277.92C194.263 279.494 188.148 279.825 182.974 277.092C177.993 274.496 175.447 269.47 174.921 264.002C173.897 252.957 179.459 241.966 186.183 233.571C194.568 223.105 205.526 214.766 215.875 206.371C216.262 206.067 215.681 205.487 215.266 205.819Z" fill="black"/>
<path d="M249.55 227.662C254.753 230.147 258.377 235.062 259.235 240.751C259.318 241.276 260.121 241.055 260.038 240.53C259.18 234.648 255.361 229.484 249.993 226.944C249.495 226.723 249.08 227.441 249.55 227.662Z" fill="black"/>
<path d="M251.211 228.38C252.318 227.938 253.203 227.192 254.144 226.474C255.251 225.618 256.385 224.79 257.492 223.934C257.907 223.602 257.492 222.884 257.077 223.216C256.081 223.961 255.085 224.707 254.089 225.48C253.12 226.226 252.152 227.137 250.989 227.579C250.519 227.772 250.713 228.573 251.211 228.38Z" fill="black"/>
<path d="M257.907 223.602C258.46 221.973 259.125 220.371 260.01 218.88C261.228 216.837 263.054 217.058 265.101 217.582C268.284 218.383 271.328 219.598 274.537 220.316C280.763 221.697 287.155 222.166 293.52 221.752C294.046 221.725 294.046 220.896 293.52 220.924C286.021 221.421 278.467 220.648 271.217 218.604C269.474 218.107 267.786 217.472 266.042 216.975C264.714 216.588 263.137 216.146 261.753 216.423C260.508 216.671 259.789 217.61 259.18 218.659C258.322 220.151 257.658 221.752 257.105 223.381C256.938 223.878 257.741 224.099 257.907 223.602Z" fill="black"/>
<path d="M259.097 236.94C261.173 235.366 263.22 233.792 265.296 232.218C265.711 231.887 265.296 231.169 264.881 231.5C262.805 233.074 260.758 234.648 258.682 236.222C258.267 236.553 258.682 237.271 259.097 236.94Z" fill="black"/>
<path d="M265.268 232.025C272.02 233.488 278.91 232.384 285.302 229.954C288.207 228.849 291.528 227.606 294.018 225.729C295.761 224.431 296.01 221.946 293.714 221.062C293.216 220.869 292.994 221.669 293.492 221.863C294.738 222.332 294.876 223.685 294.018 224.624C293.603 225.094 293.022 225.397 292.468 225.729C291.334 226.364 290.172 226.944 289.01 227.496C286.547 228.656 284.001 229.65 281.372 230.423C276.198 231.914 270.774 232.411 265.461 231.252C264.963 231.113 264.742 231.914 265.268 232.025Z" fill="black"/>
<path d="M193.156 112.759C197.362 109.279 203.644 105.082 212.028 102.596C215.957 101.437 220.883 100.001 227.413 100.553C237.43 101.409 244.32 106.324 246.756 108.119C250.574 110.908 253.175 113.863 254.78 115.934C255.085 135.292 255.5 154.677 256.025 174.035C256.191 180 256.357 185.992 256.551 191.957C252.622 194.387 247.115 197.12 240.142 198.722C223.816 202.45 210.23 197.479 204.723 195.077C204.695 190.189 204.391 182.844 202.897 174.035C200.462 159.565 196.671 153.738 194.291 141.284C193.101 134.85 191.967 125.185 193.156 112.759Z" fill="#BEE2CB"/>
<path d="M243.186 117.536C241.83 119.027 241.581 120.711 241.664 127.173C241.719 133.966 242.079 138.605 242.301 143.99C242.467 147.884 242.605 150.977 242.522 155.008C242.439 160.089 242.107 164.259 241.802 167.048C239.091 170.086 236.683 172.461 234.885 174.173C230.845 178.011 226.445 182.153 219.942 186.047C217.369 187.566 215.155 188.67 213.661 189.361C212.305 189.14 210.783 188.808 209.123 188.394C205.193 187.4 203.561 186.516 200.6 186.516C199.715 186.516 196.92 186.516 196.643 187.51C196.394 188.339 197.944 189.637 199.161 190.272C200.296 190.852 200.794 190.686 201.928 191.211C203.201 191.818 204.031 192.702 204.529 193.365C204.004 194.11 203.201 195.243 202.316 196.706C201.292 198.418 201.07 199.081 199.881 201.124C198.635 203.278 197.999 204.355 197.446 204.908C196.588 205.708 196.062 205.874 192.216 207.586C188.397 209.298 187.733 209.685 187.733 210.154C187.733 210.624 188.48 210.734 191.441 212.004C193.848 213.026 194.07 213.247 195.315 213.606C196.864 214.048 197.805 214.324 198.94 214.075C200.738 213.716 201.901 212.363 202.399 211.645C202.648 211.866 203.256 212.336 204.059 212.363C204.695 212.363 205.221 212.115 205.636 211.783C207.379 210.541 208.237 208.249 209.953 205.681C210.257 205.239 211.336 203.61 213.08 201.787C214.159 200.627 215.155 199.771 215.875 199.191C216.843 198.97 218.282 198.639 219.998 198.142C226.666 196.237 231.481 193.945 235.521 192.012C237.873 190.879 240.53 189.388 245.815 186.434C250.408 183.865 252.788 182.429 254.891 179.613C255.112 179.309 256.247 177.79 257.243 175.553C257.547 174.863 258.627 172.405 259.208 168.098C259.484 166.192 259.484 165.143 259.512 159.178C259.567 151.584 259.567 152.495 259.567 151.722C259.54 140.594 258.959 141.588 258.765 131.37C258.737 130.404 258.71 127.781 257.907 124.467C257.049 120.877 255.97 119.275 255.361 118.475C254.587 117.453 253.646 116.238 252.041 115.547C249.108 114.25 245.206 115.299 243.186 117.536Z" fill="white"/>
<path opacity="0.25" d="M252.068 115.52C252.732 117.701 253.535 120.849 254.088 124.66C254.752 129.272 255.001 134.353 253.507 147.635C252.262 158.736 251.653 164.287 250.048 169.478C247.751 176.879 246.091 182.264 241.027 186.516C237.762 189.25 234.193 190.52 227.026 193.033C221.768 194.884 217.258 195.988 214.159 196.678C211.945 199.661 208.652 203.444 203.976 207.034C200.323 209.851 196.809 211.784 193.903 213.109C194.318 213.385 196.034 214.49 198.358 214.186C201.07 213.827 202.537 211.894 202.786 211.535C203.312 211.922 204.086 212.336 204.944 212.198C206.715 211.922 207.656 209.409 208.126 208.277C209.15 205.929 211.198 202.698 215.791 199.164C218.835 198.363 222.958 197.148 227.745 195.325C234.414 192.757 238.897 190.272 243.711 187.593C251.432 183.286 253.175 181.518 254.448 179.806C256.772 176.686 257.741 173.482 258.156 172.074C258.903 169.561 259.041 166.745 259.318 161.249C259.512 157.162 259.512 154.014 259.512 151.639C259.512 147.553 259.429 144.515 259.346 141.892C259.235 138.081 259.014 133.607 258.46 128.25C258.045 124.356 257.741 122.81 256.855 121.07C255.499 118.309 253.479 116.542 252.068 115.52Z" fill="#9B9797"/>
<path d="M242.771 117.425C241.332 121.015 241.166 124.881 241.249 128.719C241.332 132.944 241.553 137.142 241.747 141.367C242.134 149.927 242.411 158.515 241.387 167.048C241.332 167.573 242.162 167.573 242.217 167.048C243.214 158.709 242.992 150.286 242.605 141.919C242.411 137.777 242.19 133.635 242.079 129.465C241.968 125.461 242.051 121.429 243.573 117.646C243.767 117.149 242.965 116.928 242.771 117.425Z" fill="black"/>
<path d="M242.992 166.33C240.446 167.739 238.399 169.782 236.434 171.908C234.303 174.2 232.173 176.437 229.793 178.481C224.923 182.706 219.444 186.185 213.578 188.891C213.08 189.112 213.522 189.83 213.993 189.609C219.638 187.013 224.923 183.7 229.655 179.696C232.007 177.735 234.165 175.581 236.24 173.344C238.399 170.997 240.557 168.622 243.379 167.076C243.878 166.772 243.463 166.054 242.992 166.33Z" fill="black"/>
<path d="M213.771 188.946C210.728 188.311 207.656 187.649 204.612 186.958C203.09 186.627 201.541 186.213 199.991 185.937C199.023 185.771 197.999 185.688 197.141 186.24C195.813 187.096 195.813 188.67 197.003 189.609C197.861 190.3 198.967 190.603 199.991 190.935C201.652 191.459 203.063 192.122 204.142 193.53C204.474 193.945 205.193 193.53 204.861 193.116C203.893 191.874 202.731 190.99 201.236 190.465C200.213 190.106 199.078 189.885 198.137 189.361C197.473 189.002 196.615 188.449 197.113 187.455C197.584 186.516 198.774 186.599 199.632 186.737C201.928 187.069 204.225 187.731 206.522 188.256C208.874 188.781 211.226 189.278 213.578 189.775C214.076 189.858 214.297 189.057 213.771 188.946Z" fill="black"/>
<path d="M203.478 193.669C202.26 195.905 201.015 198.114 199.797 200.351C199.189 201.428 198.663 202.588 197.943 203.637C197.196 204.714 196.2 205.267 195.038 205.819C192.852 206.841 190.5 207.669 188.397 208.856C187.456 209.409 186.847 210.403 187.65 211.369C188.646 212.557 190.61 212.087 191.939 211.866C193.765 211.563 195.508 210.955 197.169 210.182C200.627 208.525 203.561 205.929 205.664 202.726C205.968 202.284 205.249 201.87 204.944 202.312C203.09 205.184 200.517 207.503 197.501 209.105C196.062 209.851 194.512 210.458 192.935 210.817C192.049 211.038 191.109 211.231 190.168 211.259C189.31 211.314 189.089 211.425 188.673 210.569C188.148 210.071 188.203 209.74 188.812 209.574C189.006 209.492 189.172 209.409 189.365 209.326C191.136 208.497 192.935 207.697 194.706 206.868C196.089 206.233 197.445 205.681 198.386 204.438C199.493 202.975 200.268 201.235 201.153 199.633C202.177 197.783 203.201 195.933 204.197 194.11C204.446 193.613 203.727 193.199 203.478 193.669Z" fill="black"/>
<path d="M216.123 199.716C223.511 197.645 230.678 194.884 237.541 191.459C240.944 189.747 244.265 187.897 247.502 185.854C250.408 184.031 253.479 182.181 255.555 179.392C255.859 178.95 255.14 178.536 254.835 178.978C252.677 181.905 249.301 183.81 246.257 185.688C243.158 187.593 239.948 189.361 236.683 190.99C230.014 194.276 223.069 196.927 215.902 198.943C215.404 199.053 215.625 199.854 216.123 199.716Z" fill="black"/>
<path d="M243.324 118.171C245.621 113.67 251.515 114.692 254.42 117.895C257.907 121.761 258.073 127.422 258.46 132.337C259.29 143.079 259.456 153.904 258.792 164.646C258.46 169.865 257.685 175.388 254.199 179.53C253.867 179.944 254.448 180.524 254.78 180.11C257.907 176.354 258.986 171.605 259.429 166.855C260.01 160.78 260.01 154.622 259.954 148.519C259.899 142.14 259.595 135.734 259.014 129.382C258.571 124.605 257.713 119.331 253.756 116.155C250.38 113.449 244.735 113.532 242.577 117.757C242.356 118.226 243.075 118.64 243.324 118.171Z" fill="black"/>
<path d="M191.191 212.336C193.211 213.247 195.647 214.628 197.943 214.628C200.157 214.6 201.79 212.778 203.284 211.397C207.573 207.42 211.862 203.444 216.151 199.495C216.538 199.136 215.957 198.556 215.57 198.915C211.945 202.284 208.32 205.625 204.695 208.994C203.09 210.458 201.43 212.557 199.41 213.468C197.03 214.545 193.765 212.612 191.634 211.645C191.136 211.397 190.721 212.115 191.191 212.336Z" fill="black"/>
<path d="M202.454 211.756C203.367 213.468 205.387 212.778 206.411 211.59C208.431 209.215 210.008 206.344 211.724 203.775C212.028 203.334 211.309 202.919 211.004 203.361C209.925 204.963 208.846 206.565 207.767 208.166C207.158 209.05 204.474 213.827 203.173 211.342C202.924 210.872 202.205 211.287 202.454 211.756Z" fill="black"/>
<path d="M196.034 210.403C196.864 210.845 197.888 211.287 198.801 210.845C199.272 210.596 199.465 210.21 199.687 209.768C200.074 209.022 200.461 208.442 201.181 207.973C201.624 207.669 201.209 206.951 200.766 207.255C200.102 207.697 199.548 208.249 199.161 208.967C198.884 209.492 198.718 210.127 197.999 210.182C197.473 210.237 196.892 209.906 196.449 209.685C196.006 209.464 195.564 210.154 196.034 210.403Z" fill="black"/>
<path d="M190.362 52.6143C189.393 54.5749 188.425 57.861 188.12 58.9379C187.677 60.4844 186.681 64.1018 186.128 68.9067C185.823 71.5577 185.491 74.4572 185.768 78.2956C185.906 80.1182 186.1 82.9901 187.179 86.5523C187.899 88.9824 188.95 92.4894 191.8 96.0793C194.291 99.1997 197.141 101.16 199.41 102.348C200.849 102.375 202.592 102.293 204.529 101.934C208.016 101.271 210.728 99.9729 212.554 98.9236C212.803 100.332 213.135 101.823 213.55 103.369C214.408 106.573 215.459 109.389 216.511 111.819C217.645 111.626 219.001 111.295 220.44 110.632C225.006 108.506 227.192 104.585 227.967 102.955C227.552 101.354 227.22 99.6139 226.915 97.819C225.864 91.1087 226.14 85.1164 226.805 80.2562C227.386 80.4495 228.326 80.6981 229.489 80.6428C231.758 80.5048 233.307 79.2621 234.082 78.5994C234.746 78.0471 237.762 75.3685 237.652 71.392C237.624 70.4531 237.569 68.1611 235.936 66.9185C234.414 65.7863 232.366 66.2005 230.872 66.5043C229.157 66.8633 227.884 67.5812 227.109 68.0783C227.69 66.1729 228.908 61.2852 227.109 55.5966C226.722 54.3816 224.148 46.6495 216.566 43.3082C206.273 38.7242 193.903 45.5174 190.362 52.6143Z" fill="white"/>
<path opacity="0.24" d="M221.63 52.78C221.852 55.3482 222.018 59.0761 221.63 63.4944C220.44 76.8874 215.128 86.1934 213.744 88.513C211.641 92.0477 208.044 97.1839 202.288 102.237C204.004 102.016 205.968 101.63 208.071 100.884C213.855 98.8408 217.729 95.3338 219.832 93.0418C219.998 96.107 220.523 99.8349 221.769 103.922C222.322 105.662 222.931 107.263 223.567 108.699C225.034 106.794 226.473 104.888 227.939 102.955C227.635 101.16 227.358 99.255 227.164 97.2944C226.528 91.3573 226.528 85.8897 226.86 81.0295C228.105 81.0571 229.904 80.9467 231.813 80.2011C240.17 76.8874 244.929 63.7153 240.419 56.5356C240.225 56.2318 239.229 54.6854 237.181 53.3047C230.845 49.0521 222.792 52.283 221.63 52.78Z" fill="#9B9797"/>
<path d="M188.342 58.1096C187.788 56.2042 187.013 52.5591 187.816 48.0856C188.065 46.7048 188.923 42.2589 191.967 38.7519C196.422 33.6432 202.011 34.6097 209.261 32.014C213.854 30.3848 220.163 26.9606 226.556 18.8972C225.974 21.8795 225.393 24.8895 224.812 27.8718C225.808 28.148 229.157 28.866 232.588 27.1815C238.288 24.3924 238.786 17.6545 238.814 17.3508C239.506 18.8972 240.751 22.3214 240.197 26.6844C239.81 29.6668 238.731 31.9035 237.956 33.2566C238.288 33.6156 240.059 35.4382 242.107 35.162C244.597 34.8307 246.922 31.4341 246.257 27.0434C246.811 28.6727 247.475 31.3513 247.309 34.6374C247.088 38.6414 245.759 41.6514 244.874 43.2807C245.095 43.474 246.506 44.7442 248.499 44.4957C250.242 44.2748 251.736 43.0045 252.317 41.2096C252.179 43.0597 251.847 45.7383 250.768 48.8035C249.301 52.9457 248.084 53.2771 247.475 56.2318C246.506 60.871 248.997 62.445 248.333 66.5872C247.779 70.0666 245.51 72.2481 242.633 75.0372C237.403 80.0906 231.398 82.8244 226.362 84.3432C226.583 82.7968 226.832 81.2504 227.054 79.704C227.69 80.0906 228.797 80.6153 230.18 80.5601C233.003 80.4496 234.774 77.9367 235.715 76.5836C236.794 75.0648 238.593 72.4691 237.624 69.68C236.822 67.4156 234.691 66.4767 234.497 66.3939C232.007 65.3445 228.797 66.2834 226.722 68.824C225.559 64.2676 224.425 59.7388 223.263 55.1825C219.333 52.6972 215.432 50.2395 211.502 47.7542C209.565 47.3952 204.28 46.6772 198.359 49.3006C192.382 51.9516 189.338 56.4527 188.342 58.1096Z" fill="#161819"/>
<path d="M187.927 57.9992C185.575 66.7805 184.163 76.1142 186.322 85.0889C188.093 92.3791 192.575 100.691 200.213 103.066C200.711 103.232 200.932 102.431 200.434 102.265C192.769 99.8902 188.48 91.2469 186.903 83.9567C185.049 75.3962 186.46 66.5596 188.701 58.2201C188.867 57.723 188.065 57.5021 187.927 57.9992Z" fill="black"/>
<path d="M200.821 102.928C213.578 101.63 224.231 92.4341 227.22 79.9524C227.33 79.4278 226.555 79.2068 226.417 79.7315C223.512 91.799 213.246 100.829 200.821 102.099C200.296 102.154 200.268 102.983 200.821 102.928Z" fill="black"/>
<path d="M226.5 80.1734C232.201 83.6528 237.762 76.3626 238.122 71.254C238.316 68.5478 237.071 66.4767 234.387 65.7035C231.896 64.9855 229.184 65.7311 227.413 67.6089C227.054 67.9955 227.635 68.5754 227.995 68.1888C229.461 66.6147 231.675 65.9244 233.806 66.3938C234.912 66.6424 236.13 67.2499 236.766 68.244C237.458 69.321 237.375 70.8121 237.209 71.9995C236.545 76.2798 231.786 82.4102 226.915 79.4278C226.473 79.1793 226.03 79.8973 226.5 80.1734Z" fill="black"/>
<path d="M226.445 80.1182C225.366 87.7674 225.753 95.5271 227.58 103.038C227.718 103.563 228.52 103.342 228.382 102.817C226.583 95.4442 226.196 87.8227 227.248 80.3392C227.303 79.8145 226.5 79.5936 226.445 80.1182Z" fill="black"/>
<path d="M212.139 99.0341C212.997 103.508 214.325 107.843 216.151 112.04C216.373 112.538 217.092 112.096 216.871 111.626C215.072 107.512 213.772 103.231 212.941 98.8132C212.831 98.2885 212.056 98.5094 212.139 99.0341Z" fill="black"/>
<path d="M216.732 112.151C222.073 111.295 226.583 107.622 228.603 102.624C228.797 102.127 227.995 101.906 227.801 102.403C225.892 107.153 221.547 110.549 216.511 111.35C215.985 111.433 216.207 112.234 216.732 112.151Z" fill="black"/>
<path d="M212.803 100.001C213.938 100.056 214.712 99.2825 215.57 98.6198C216.705 97.7361 217.784 96.7972 218.78 95.8031C220.634 93.953 222.128 91.8267 223.097 89.3966C223.29 88.8995 222.488 88.6786 222.294 89.1757C221.436 91.3296 220.108 93.235 218.503 94.8919C217.784 95.6651 217.009 96.3554 216.207 97.0458C215.321 97.7914 214.048 99.2273 212.803 99.1721C212.277 99.1445 212.277 99.9729 212.803 100.001Z" fill="black"/>
<path d="M212.858 99.5588C215.21 98.04 217.396 96.3003 219.444 94.395C219.831 94.036 219.25 93.4285 218.863 93.8151C216.871 95.6928 214.74 97.3773 212.443 98.8685C211.973 99.117 212.416 99.835 212.858 99.5588Z" fill="black"/>
<path d="M196.588 59.6008C195.038 66.6424 194.153 73.7946 193.959 81.0019C193.959 81.4161 194.512 81.5542 194.734 81.2228C195.813 79.5107 196.892 77.771 197.971 76.0589C198.248 75.6171 197.529 75.1753 197.252 75.6447C196.173 77.3568 195.094 79.0965 194.014 80.8086C194.263 80.8915 194.54 80.9467 194.789 81.0295C194.983 73.905 195.868 66.8081 197.39 59.8493C197.501 59.297 196.698 59.0761 196.588 59.6008Z" fill="black"/>
<path d="M197.695 91.3849C197.031 90.1423 196.588 88.8168 196.477 87.4084C196.394 86.4143 196.615 82.3826 198.497 83.9842C199.493 84.8403 199.355 86.7181 199.383 87.9607C199.383 88.5406 199.383 89.1481 199.327 89.728C199.3 90.1423 199.244 90.5565 199.161 90.9431C198.442 91.4401 197.888 91.4125 197.529 90.8879C197.169 90.5013 196.56 91.0812 196.948 91.4678C198.137 92.6828 199.687 92.738 200.019 90.8326C200.268 89.4795 200.268 88.0436 200.157 86.6905C200.074 85.6135 200.074 84.0671 199.272 83.2387C198.082 82.0236 196.394 83.1558 195.924 84.4537C195.066 86.7733 195.896 89.7004 197.003 91.7991C197.224 92.2686 197.944 91.8544 197.695 91.3849Z" fill="black"/>
<path d="M203.423 66.5319C204.253 70.4256 209.372 70.7293 210.894 67.1395C211.087 66.6424 210.285 66.4215 210.091 66.9185C208.846 69.8457 204.861 69.2934 204.225 66.311C204.114 65.814 203.312 66.0073 203.423 66.5319Z" fill="black"/>
<path d="M201.79 56.9498C202.842 54.6026 205.553 53.4704 208.044 53.9951C210.617 54.5474 212.582 56.5356 213.855 58.7171C214.131 59.1866 214.851 58.7724 214.574 58.3029C213.108 55.79 210.783 53.5532 207.795 53.1114C205.111 52.7248 202.233 53.9951 201.071 56.508C200.849 57.0327 201.569 57.4469 201.79 56.9498Z" fill="black"/>
<path d="M185.575 57.8611C186.322 56.3147 187.622 54.6302 189.532 54.6578C191.358 54.6855 192.686 56.2871 193.599 57.6954C193.876 58.1373 194.595 57.723 194.319 57.2812C193.267 55.5967 191.69 53.857 189.532 53.8294C187.318 53.8018 185.768 55.6244 184.883 57.4469C184.634 57.9163 185.353 58.3306 185.575 57.8611Z" fill="black"/>
<path d="M190.472 70.3703C190.961 70.3703 191.358 68.5529 191.358 66.311C191.358 64.0691 190.961 62.2517 190.472 62.2517C189.983 62.2517 189.587 64.0691 189.587 66.311C189.587 68.5529 189.983 70.3703 190.472 70.3703Z" fill="black"/>
<path d="M193.018 114.056C192.935 115.078 192.824 116.486 192.769 118.116C192.52 123.694 192.741 127.919 192.824 129.051C193.045 132.724 193.543 137.528 194.706 143.107C193.599 144.377 191.939 146.255 189.808 148.464C185.768 152.689 183.693 154.843 180.372 157.079C176.664 159.565 174.091 160.338 172.707 160.697C170.964 161.111 169.303 161.498 167.284 161.056C163.991 160.31 162.026 157.88 161.307 156.941C159.48 154.622 159.065 152.357 158.318 147.939C157.765 144.708 157.654 142.251 157.488 137.501C157.405 135.236 157.294 132.475 157.35 128.775C157.405 124.605 157.626 119.662 158.235 114.139C158.512 111.654 158.899 108.589 159.508 105.109C159.037 104.446 158.539 103.784 158.014 103.093C157.46 102.375 156.934 101.685 156.381 100.995C154.97 102.182 153.586 103.397 152.175 104.585C151.815 104.723 151.179 104.944 150.404 104.861C148.937 104.723 148.08 103.701 147.775 103.37C146.419 101.823 146.613 99.8625 146.668 99.4759C148.578 97.4048 150.487 95.3614 152.424 93.2903C152.452 92.1029 152.618 90.5565 153.088 88.8444C153.448 87.5741 153.891 86.5248 154.306 85.6411C154.665 84.9231 155.164 84.1223 155.8 83.3215C156.934 81.8303 158.152 80.781 159.148 80.063C158.346 80.422 158.152 80.422 158.097 80.3668C157.958 80.1459 159.259 78.5166 161.085 78.3509C162.109 78.2405 162.911 78.6271 163.465 78.8756C164.323 79.2898 164.904 79.8145 165.264 80.2011C166.979 78.7375 168.695 77.274 170.41 75.838C171.019 76.197 171.628 76.6112 172.237 77.0254C173.648 77.9919 174.921 78.9584 176.055 79.8973C175.64 80.422 175.114 81.0019 174.45 81.5818C173.343 82.5483 172.237 83.1282 171.379 83.5148C171.905 83.6805 172.845 84.0671 173.316 84.9784C173.786 85.862 173.593 86.8285 173.316 88.0436C173.122 88.872 172.873 89.5347 172.679 89.9766C172.79 91.1364 172.845 92.7104 172.513 94.4777C171.988 97.3772 170.77 99.5311 169.94 100.774C169.912 101.851 169.885 103.535 169.94 105.606C170.161 114.139 171.407 119.137 172.209 125.433C172.679 129.023 173.15 134.353 173.011 141.063C173.648 140.649 174.561 139.986 175.585 139.13C178.186 136.949 179.846 134.767 182.032 131.564C184.191 128.443 185.602 126.124 187.511 123.031C188.701 121.015 190.61 117.95 193.018 114.056Z" fill="white"/>
<path opacity="0.24" d="M167.865 88.8444C167.283 90.1146 166.702 91.4125 166.121 92.738C164.433 96.7145 163.05 100.525 161.915 104.17C161.666 109.914 161.528 114.719 161.417 118.198C161.279 123.473 161.611 129.769 162.22 142.361C162.469 147.553 162.69 150.701 165.125 152.993C167.671 155.367 171.213 155.423 173.205 155.423C183.831 155.395 191.773 146.365 193.959 143.742C190.998 148.768 187.622 152.054 185.325 153.987C182.724 156.168 179.376 158.902 174.174 160.255C169.774 161.415 167.782 161.166 167.256 161.056C163.465 160.145 161.362 156.997 160.615 155.92C158.816 153.241 158.235 150.452 157.903 144.46C157.571 138.302 157.931 136.672 158.041 128.195C158.124 120.104 157.82 117.812 158.429 112.206C158.788 108.92 159.231 106.214 159.591 104.391C158.512 103.259 157.433 102.127 156.353 101.022C155.44 101.823 154.499 102.596 153.559 103.397C152.95 103.922 152.313 104.446 151.705 104.944C151.151 104.999 150.349 104.971 149.491 104.612C147.277 103.673 145.894 100.939 146.585 100.001C147.028 99.3654 148.19 99.8625 149.795 99.8625C152.562 99.8901 154.416 98.4818 158.097 95.8308C160.698 93.9254 163.686 91.7991 167.865 88.8444Z" fill="#9B9797"/>
<path d="M192.658 113.835C186.266 122.644 181.534 132.751 173.454 140.262C173.067 140.621 173.648 141.201 174.036 140.842C182.171 133.276 186.93 123.114 193.378 114.25C193.71 113.835 192.99 113.421 192.658 113.835Z" fill="black"/>
<path d="M168.861 161.691C179.818 160.973 187.677 151.805 194.263 144.018C194.595 143.604 194.014 143.024 193.682 143.438C187.29 151.06 179.542 160.172 168.888 160.89C168.335 160.89 168.335 161.719 168.861 161.691Z" fill="black"/>
<path d="M163.659 83.9014C163.714 86.083 165.153 87.9607 167.256 88.5682C167.782 88.7063 168.003 87.9055 167.478 87.7674C165.734 87.2704 164.544 85.6964 164.489 83.9014C164.461 83.3768 163.631 83.3768 163.659 83.9014Z" fill="black"/>
<path d="M164.516 83.6529C164.793 81.2505 169.082 82.9902 170.244 83.5977C171.379 84.1776 172.513 84.7575 172.762 86.1382C172.956 87.1876 172.624 88.2921 172.347 89.3139C172.209 89.8385 173.011 90.0595 173.15 89.5348C173.537 88.1541 173.952 86.58 173.371 85.2269C172.818 83.8462 171.296 83.2111 170.051 82.6036C168.778 81.9961 167.394 81.5542 165.955 81.7199C165.374 81.8028 164.627 81.9408 164.157 82.3274C163.659 82.714 163.769 82.9902 163.686 83.6805C163.631 84.1776 164.461 84.1776 164.516 83.6529Z" fill="black"/>
<path d="M172.071 89.1482C171.988 91.2469 172.458 93.2904 171.96 95.3891C171.489 97.3221 170.549 99.117 169.608 100.857C169.359 101.326 170.078 101.74 170.327 101.271C171.296 99.4484 172.264 97.5982 172.762 95.61C173.288 93.4561 172.818 91.3298 172.901 89.1482C172.928 88.5959 172.098 88.5959 172.071 89.1482Z" fill="black"/>
<path d="M169.608 100.884C168.972 115.437 173.15 129.686 172.486 144.239C172.458 144.763 173.288 144.763 173.316 144.239C173.98 129.686 169.802 115.437 170.438 100.884C170.466 100.36 169.636 100.36 169.608 100.884Z" fill="black"/>
<path d="M156.022 101.188C156.852 102.348 157.737 103.452 158.733 104.474C159.093 104.861 159.674 104.281 159.314 103.894C158.374 102.9 157.516 101.878 156.741 100.774C156.409 100.332 155.689 100.746 156.022 101.188Z" fill="black"/>
<path d="M159.204 104.253C157.626 113.228 156.851 122.341 156.879 131.453C156.907 135.982 157.128 140.538 157.571 145.04C157.931 148.878 158.373 152.91 160.393 156.279C162.22 159.344 165.43 161.663 169.082 161.581C169.608 161.553 169.608 160.725 169.082 160.752C163.963 160.89 160.67 156.334 159.48 151.86C158.152 146.945 158.041 141.588 157.848 136.534C157.433 125.82 158.18 115.05 160.034 104.502C160.089 103.949 159.287 103.729 159.204 104.253Z" fill="black"/>
<path d="M153.974 91.8543C151.373 94.0359 148.855 96.3278 146.475 98.7303C146.088 99.1169 146.696 99.6968 147.056 99.3102C149.463 96.9078 151.954 94.6157 154.555 92.4342C154.97 92.1028 154.389 91.5229 153.974 91.8543Z" fill="black"/>
<path d="M146.226 99.4759C145.811 102.679 148.246 105.385 151.483 105.358C152.009 105.358 152.009 104.529 151.483 104.529C148.689 104.557 146.696 102.21 147.056 99.4759C147.139 98.9512 146.309 98.9512 146.226 99.4759Z" fill="black"/>
<path d="M147.001 99.2827C149.906 99.3655 151.926 101.961 151.317 104.778C151.207 105.303 152.009 105.524 152.12 104.999C152.867 101.602 150.487 98.5647 147.001 98.4542C146.475 98.4542 146.475 99.2827 147.001 99.2827Z" fill="black"/>
<path d="M152.452 104.861C155.606 101.989 158.816 99.1445 161.888 96.1898C163.299 94.8367 164.655 93.456 165.928 91.9648C166.619 91.164 168.363 89.59 168.39 88.4854C168.39 88.3473 168.307 88.1816 168.197 88.1264C168.141 88.0988 168.086 88.0712 168.058 88.0712C167.892 87.9883 167.671 87.9883 167.56 88.1264C167.533 88.154 167.505 88.1816 167.477 88.2369C167.145 88.6511 167.726 89.231 168.058 88.8168C168.086 88.7892 168.114 88.7615 168.141 88.7063C167.975 88.7339 167.809 88.7615 167.643 88.7615C167.588 88.513 167.505 88.513 167.394 88.7892C167.256 88.9825 167.117 89.1758 166.951 89.3691C166.619 89.7833 166.315 90.1975 165.955 90.6117C165.402 91.3021 164.793 91.9648 164.212 92.6276C162.994 93.953 161.722 95.1957 160.421 96.4107C157.599 99.0617 154.721 101.63 151.871 104.253C151.456 104.64 152.064 105.22 152.452 104.861Z" fill="black"/>
<path d="M152.811 93.4007C153.005 92.0752 153.199 90.7498 153.392 89.4243C153.531 88.4301 153.642 87.3256 154.195 86.4419C155.468 84.3985 157.266 85.862 158.235 87.2427C158.65 87.8226 159.037 88.4578 159.452 89.0377C159.674 89.369 160.753 90.5565 160.615 90.9707C160.753 90.8602 160.891 90.7774 161.002 90.6669C160.947 90.6669 160.919 90.6669 160.864 90.6669C160.338 90.6393 160.338 91.4677 160.864 91.4953C160.919 91.4953 160.947 91.4953 161.002 91.4953C161.196 91.4953 161.362 91.3573 161.389 91.1916C161.583 90.5012 161.113 90.087 160.753 89.5347C160.061 88.513 159.397 87.4636 158.678 86.4695C157.931 85.4478 156.962 84.4537 155.579 84.5917C154.25 84.7298 153.448 85.7516 153.033 86.939C152.341 88.8996 152.286 91.1364 151.981 93.1798C151.926 93.7045 152.728 93.9254 152.811 93.4007Z" fill="black"/>
<path d="M154.112 90.2805C154.859 91.744 156.105 93.2352 157.875 93.3457C159.342 93.4561 160.726 92.6277 161.113 91.1917C161.251 90.6671 160.449 90.4462 160.311 90.9708C159.951 92.2963 158.484 92.7934 157.267 92.3792C156.105 91.965 155.357 90.9432 154.832 89.8939C154.583 89.3968 153.863 89.811 154.112 90.2805Z" fill="black"/>
<path d="M155.136 84.8956C155.274 83.5425 156.824 83.1835 157.875 83.5425C158.982 83.9015 159.84 84.8956 160.615 85.6964C161.224 86.3316 162.414 87.2152 162.58 88.0989C162.801 89.2863 161.307 90.0871 160.311 90.3909C159.812 90.5289 160.006 91.3298 160.532 91.1917C161.749 90.8327 163.52 89.7557 163.714 88.3198C163.797 87.7399 163.437 87.4361 163.05 87.0219C162.275 86.1935 161.528 85.3927 160.726 84.5919C159.646 83.4873 158.263 82.2999 156.603 82.576C155.357 82.7693 154.444 83.5977 154.306 84.868C154.251 85.4203 155.081 85.4203 155.136 84.8956Z" fill="black"/>
<path d="M156.63 82.8521C157.018 82.4102 157.211 81.8303 157.571 81.3885C158.457 80.2839 159.84 81.3057 160.753 81.9684C162.524 83.211 164.406 85.4754 162.801 87.6293C162.497 88.0712 163.216 88.4854 163.52 88.0436C165.236 85.7239 163.548 83.0454 161.583 81.5542C160.67 80.8638 159.287 79.6212 158.042 79.9802C156.935 80.2839 156.741 81.5542 156.049 82.2998C155.689 82.6588 156.271 83.2387 156.63 82.8521Z" fill="black"/>
<path d="M159.425 80.3392C160.393 79.1518 161.666 77.9091 163.16 79.1518C164.157 79.9526 164.793 81.0848 165.153 82.2722C165.319 82.7693 166.094 82.576 165.955 82.0513C165.485 80.4497 164.406 78.5995 162.801 77.9367C161.168 77.274 159.812 78.5719 158.844 79.7593C158.512 80.1459 159.093 80.7534 159.425 80.3392Z" fill="black"/>
<path d="M165.541 80.4496C167.256 78.986 168.972 77.5225 170.687 76.0865C171.102 75.7276 170.494 75.1476 170.106 75.5066C168.391 76.9702 166.675 78.4338 164.959 79.8697C164.544 80.2287 165.153 80.8086 165.541 80.4496Z" fill="black"/>
<path d="M171.656 83.9842C173.288 82.7968 174.865 81.5266 176.332 80.1459C176.719 79.7869 176.138 79.207 175.751 79.566C174.312 80.8914 172.818 82.1341 171.241 83.2663C170.798 83.57 171.213 84.288 171.656 83.9842Z" fill="black"/>
<path d="M184.08 81.9132C193.311 81.9132 200.793 74.4457 200.793 65.2341C200.793 56.0225 193.311 48.5551 184.08 48.5551C174.85 48.5551 167.367 56.0225 167.367 65.2341C167.367 74.4457 174.85 81.9132 184.08 81.9132Z" stroke="#6DEAB4" stroke-width="3" stroke-miterlimit="10"/>
<path d="M173.952 67.2776C180.095 63.3563 186.377 59.656 192.797 56.1766C193.267 55.9281 192.852 55.2101 192.381 55.4586C185.962 58.9104 179.68 62.6108 173.537 66.5596C173.095 66.8634 173.51 67.5813 173.952 67.2776Z" fill="black"/>
<path d="M174.644 74.5125C179.708 70.8122 184.827 67.2499 190.057 63.7705C190.5 63.4667 190.084 62.7488 189.642 63.0525C184.44 66.5319 179.293 70.1218 174.229 73.7945C173.786 74.0983 174.201 74.8162 174.644 74.5125Z" fill="black"/>
</g>
<defs>
<clipPath id="clip0_58723_270">
<rect width="336" height="304" fill="white"/>
</clipPath>
</defs>
</svg>
